<svg class="logo" width="290" height="60" viewBox="0 0 290 60" fill="none" xmlns="http://www.w3.org/2000/svg">
<g clip-path="url(#clip0_8_86)">
<path d="M79.236 6.20001L70.94 53.8H83.486L87.328 31.734L99.602 53.8H109.496L117.792 6.20001H105.246L101.37 28.368L89.062 6.20001H79.236Z" fill="black"/>
<path fill-rule="evenodd" clip-rule="evenodd" d="M112.316 53.8L135.742 6.20001H148.322L155.19 53.8H141.556L140.808 47.952H128.704L125.848 53.8H112.316ZM133.09 38.398H139.856L138.632 26.43L133.09 38.398Z" fill="black"/>
<path d="M169.378 18.032L163.122 53.8H176.654L182.91 18.032H193.824L195.864 6.20001H160.504L158.464 18.032H169.378Z" fill="black"/>
<path d="M191.178 53.8L199.474 6.20001H213.006L204.71 53.8H191.178Z" fill="black"/>
<path d="M215.917 6.20001L223.261 53.8H233.733L257.465 6.20001H243.729L232.339 32.856L229.755 6.20001H215.917Z" fill="black"/>
<path d="M260.22 6.20001L251.924 53.8H282.49L284.394 42.852H267.36L268.788 34.658H281.674L283.442 24.492H270.556L271.848 17.148H288.372L290.276 6.20001H260.22Z" fill="black"/>
<path fill-rule="evenodd" clip-rule="evenodd" d="M3.84 0H56.16C58.2808 0 60 1.71923 60 3.84V19.3879C56.2128 16.8802 52.0494 14.8388 47.6134 13.3504C45.7808 12.7355 43.7967 13.7226 43.1818 15.5552C42.5669 17.3878 43.554 19.3718 45.3866 19.9867C50.8604 21.8234 55.8046 24.5984 60 28.087V37.7682C53.3913 28.5217 42.3843 22.5 30 22.5C24.27 22.5 18.8365 23.7865 13.9981 26.0852C12.2521 26.9147 11.5091 29.0025 12.3386 30.7485C13.1681 32.4944 15.2559 33.2374 17.0019 32.4079C20.9167 30.5481 25.3255 29.5 30 29.5C46.3947 29.5 59.5 42.3606 59.5 58C59.5 58.0187 59.5 58.0375 59.4999 58.0562C58.8394 59.2171 57.5912 60 56.16 60H53.4161C53.4717 59.3407 53.5 58.6737 53.5 58C53.5 52.446 51.5689 47.3334 48.3443 43.3109C47.1353 41.8026 44.9325 41.5601 43.4243 42.7691C41.9161 43.9782 41.6735 46.1809 42.8826 47.6891C45.1475 50.5146 46.5 54.0946 46.5 58C46.5 58.677 46.4592 59.3444 46.38 60H41.5V58C41.5 51.6487 36.3513 46.5 30 46.5C23.6487 46.5 18.5 51.6487 18.5 58V60H13.62C13.5408 59.3444 13.5 58.677 13.5 58C13.5 51.8971 16.8115 46.5635 21.7525 43.7053C23.4258 42.7374 23.9975 40.5963 23.0296 38.9231C22.0617 37.2499 19.9207 36.6781 18.2475 37.646C11.2324 41.704 6.5 49.2973 6.5 58C6.5 58.6737 6.52835 59.3407 6.58391 60H3.84C2.40885 60 1.16055 59.2171 0.500057 58.0562C0.500019 58.0375 0.5 58.0187 0.5 58C0.5 50.2373 3.70949 43.1878 8.95422 38.0295C10.3324 36.6741 10.3508 34.4581 8.99536 33.08C7.63994 31.7018 5.42393 31.6834 4.04578 33.0388C2.56295 34.4972 1.20812 36.0814 0 37.7737V28.0885C7.8689 21.5331 18.3607 17.5 30 17.5C31.7382 17.5 33.452 17.5906 35.136 17.7667C37.0585 17.9678 38.78 16.5722 38.981 14.6497C39.1821 12.7272 37.7865 11.0057 35.864 10.8047C33.9384 10.6033 31.9816 10.5 30 10.5C18.8667 10.5 8.48415 13.7827 0 19.3917V3.84C0 1.71923 1.71923 0 3.84 0ZM26.5 38C26.5 36.067 28.067 34.5 30 34.5C32.2356 34.5 34.4039 34.8132 36.4606 35.4002C38.3193 35.9307 39.3961 37.8676 38.8656 39.7263C38.3351 41.5851 36.3982 42.6619 34.5394 42.1314C33.1013 41.7209 31.5794 41.5 30 41.5C28.067 41.5 26.5 39.933 26.5 38Z" fill="#C18BF4"/>
<path d="M25.5 60H34.5V58C34.5 55.5147 32.4853 53.5 30 53.5C27.5147 53.5 25.5 55.5147 25.5 58V60Z" fill="#C18BF4"/>
</g>
<defs>
<clipPath id="clip0_8_86">
<rect width="290" height="60" fill="white"/>
</clipPath>
</defs>
</svg>
