<svg class="logo" width="312" height="60" viewBox="0 0 312 60" xmlns="http://www.w3.org/2000/svg">
  <g class="logo__icon" fill="#E76057">
    <path d="M1.76471 0C0.790086 0 0 0.790087 0 1.76471V16.1568C0 17.035 0 17.474 0.173053 17.7079C0.32763 17.9168 0.548994 18.0404 0.80795 18.0623C1.09786 18.0869 1.48203 17.8499 2.25036 17.3761C10.3192 12.4002 19.8244 9.52941 30 9.52941C40.1756 9.52941 49.6808 12.4002 57.7496 17.3761C58.518 17.8499 58.9021 18.0869 59.1921 18.0623C59.451 18.0404 59.6724 17.9168 59.827 17.7079C60 17.474 60 17.035 60 16.1568V1.76471C60 0.790086 59.2099 0 58.2353 0H1.76471Z"/>
    <path d="M6.35294 60C6.84711 60 7.09419 60 7.28293 59.9038C7.44896 59.8192 7.58394 59.6843 7.66854 59.5182C7.76471 59.3295 7.76471 59.0824 7.76471 58.5882V26.397C7.76471 25.603 7.76471 25.206 7.5874 24.9703C7.43698 24.7704 7.18984 24.6368 6.94021 24.6204C6.64595 24.6011 6.32424 24.8116 5.68082 25.2326C3.84215 26.4359 2.09803 27.7716 0.462006 29.2263C0.295417 29.3744 0.212123 29.4485 0.149565 29.5418C0.0950406 29.623 0.0526537 29.7175 0.0281335 29.8122C0 29.9209 0 30.0356 0 30.265V58.2353C0 59.2099 0.790087 60 1.76471 60H6.35294Z"/>
    <path d="M19.4118 60C19.9059 60 20.153 60 20.3418 59.9038C20.5078 59.8192 20.6428 59.6843 20.7274 59.5182C20.8235 59.3295 20.8235 59.0824 20.8235 58.5882V20.6865C20.8235 20.0938 20.8235 19.7974 20.6957 19.5865C20.5861 19.4058 20.403 19.263 20.201 19.2008C19.9654 19.1282 19.6867 19.1982 19.1293 19.3382C17.3535 19.7844 15.62 20.3373 13.9362 20.9899C13.6271 21.1097 13.4725 21.1696 13.3527 21.2767C13.2488 21.3697 13.1646 21.4926 13.1155 21.6231C13.0588 21.7735 13.0588 21.9442 13.0588 22.2856V58.5882C13.0588 59.0824 13.0588 59.3295 13.155 59.5182C13.2396 59.6843 13.3746 59.8192 13.5406 59.9038C13.7293 60 13.9764 60 14.4706 60H19.4118Z"/>
    <path d="M32.4706 60C32.9648 60 33.2118 60 33.4006 59.9038C33.5666 59.8192 33.7016 59.6843 33.7862 59.5182C33.8824 59.3295 33.8824 59.0824 33.8824 58.5882V19.4621C33.8824 19.0058 33.8824 18.7777 33.793 18.5945C33.7158 18.4364 33.5853 18.2982 33.4318 18.2121C33.2541 18.1123 33.033 18.0996 32.5908 18.0742C31.7335 18.025 30.8697 18 30 18C29.1303 18 28.2665 18.025 27.4092 18.0742C26.967 18.0996 26.7459 18.1123 26.5682 18.2121C26.4147 18.2982 26.2842 18.4364 26.207 18.5945C26.1176 18.7777 26.1176 19.0058 26.1176 19.4621V58.5882C26.1176 59.0824 26.1176 59.3295 26.2138 59.5182C26.2984 59.6843 26.4334 59.8192 26.5994 59.9038C26.7882 60 27.0352 60 27.5294 60H32.4706Z"/>
    <path d="M45.5294 60C46.0236 60 46.2707 60 46.4594 59.9038C46.6254 59.8192 46.7604 59.6843 46.845 59.5182C46.9412 59.3295 46.9412 59.0824 46.9412 58.5882V22.2856C46.9412 21.9442 46.9412 21.7735 46.8845 21.6231C46.8353 21.4926 46.7512 21.3697 46.6473 21.2767C46.5275 21.1696 46.3729 21.1097 46.0638 20.9899C44.38 20.3373 42.6465 19.7844 40.8707 19.3382C40.3133 19.1982 40.0346 19.1282 39.799 19.2008C39.597 19.263 39.4139 19.4058 39.3043 19.5865C39.1765 19.7974 39.1765 20.0938 39.1765 20.6865V58.5882C39.1765 59.0824 39.1765 59.3295 39.2726 59.5182C39.3572 59.6843 39.4922 59.8192 39.6582 59.9038C39.847 60 40.0941 60 40.5882 60H45.5294Z"/>
    <path d="M60 30.265C60 30.0356 60 29.9209 59.9719 29.8122C59.9473 29.7175 59.905 29.623 59.8504 29.5418C59.7879 29.4485 59.7046 29.3744 59.538 29.2263C57.902 27.7716 56.1578 26.4359 54.3192 25.2326C53.6758 24.8116 53.3541 24.6011 53.0598 24.6204C52.8102 24.6368 52.563 24.7704 52.4126 24.9703C52.2353 25.206 52.2353 25.603 52.2353 26.397V58.5882C52.2353 59.0824 52.2353 59.3295 52.3315 59.5182C52.4161 59.6843 52.551 59.8192 52.7171 59.9038C52.9058 60 53.1529 60 53.6471 60H58.2353C59.2099 60 60 59.2099 60 58.2353V30.265Z"/>
  </g>
  <g class="logo__wordmark" fill="#000">
    <path d="M84.3921 43.8826L85.2751 38.8291L71.7854 40.5815L71.242 43.8147C70.8759 45.568 70.8436 47.3747 71.1469 49.14C71.387 50.3897 72.0314 51.5258 72.9808 52.3732C74.0224 53.2177 75.2693 53.7709 76.5944 53.9762C78.2991 54.2706 80.0268 54.4115 81.7567 54.3973H91.9725C93.7292 54.4066 95.4835 54.2657 97.2162 53.9762C98.7079 53.7253 100.135 53.1804 101.414 52.3732C102.684 51.5444 103.741 50.4272 104.498 49.1128C105.422 47.4564 106.043 45.6485 106.332 43.774L107.894 34.7536C108.277 33.0451 108.277 31.2727 107.894 29.5642C107.556 28.3337 106.814 27.2525 105.788 26.494C104.649 25.7056 103.342 25.1939 101.971 24.9997C100.269 24.7265 98.5464 24.5948 96.8223 24.6057H88.3317L89.6902 16.3326H97.4608L96.7136 20.7748L109.945 19.1446L110.502 15.9522C110.887 14.2484 110.887 12.4801 110.502 10.7763C110.185 9.55392 109.473 8.47013 108.478 7.69259C107.409 6.90661 106.164 6.39365 104.851 6.19825C103.231 5.92453 101.59 5.79271 99.9468 5.80429H90.9536C89.2928 5.79898 87.6343 5.93074 85.9951 6.19825C84.5166 6.42767 83.096 6.93963 81.811 7.70617C80.5464 8.49312 79.4815 9.56265 78.7001 10.8307C77.7563 12.4232 77.1376 14.187 76.8797 16.0201L75.4261 24.4427C75.0201 26.2001 74.9831 28.0227 75.3174 29.7951C75.5972 31.0621 76.2843 32.2025 77.2737 33.0419C78.3494 33.881 79.621 34.4327 80.9687 34.6449C82.6893 34.9602 84.4361 35.1103 86.1853 35.0932H94.6079L93.0864 43.8826H84.3921ZM115.766 6.34937H150.996L148.887 18.3926H138.163L131.987 53.8525H118.215L124.391 18.3926H113.667L115.766 6.34937ZM146.637 53.8114L154.895 6.35098H177.677C179.415 6.33403 181.15 6.49304 182.856 6.82559C184.209 7.07528 185.48 7.6526 186.558 8.50704C187.553 9.36351 188.243 10.5198 188.525 11.8022C188.895 13.5363 188.895 15.3293 188.525 17.0635L186.938 26.2708C186.723 27.4977 186.363 28.6948 185.867 29.8371C185.451 30.8229 184.883 31.7379 184.185 32.5491C183.511 33.2951 182.713 33.919 181.826 34.3933C180.907 34.8833 179.945 35.2873 178.951 35.6002H178.544L185.419 53.8521H170.34L165.093 37.58H163.194L160.387 53.8521L146.637 53.8114ZM165.025 27.1929H170.815C171.164 27.1968 171.512 27.1464 171.846 27.0437C172.141 26.9489 172.416 26.802 172.659 26.6098C172.905 26.4317 173.101 26.1936 173.229 25.9182C173.368 25.6213 173.482 25.3128 173.568 24.9962L174.436 19.8433C174.491 19.543 174.491 19.2351 174.436 18.9348C174.391 18.686 174.283 18.4527 174.124 18.2568C173.946 18.0609 173.722 17.9119 173.473 17.8229C173.158 17.7187 172.828 17.6683 172.497 17.6737H166.693L165.025 27.1929ZM209.133 6.34976L185.966 53.8114L199.755 53.8521L202.469 48.1925H214.195L214.874 53.8521H228.718L222.04 6.34976H209.133ZM213.327 38.4885H206.853L212.2 26.7893L213.327 38.4885ZM239.861 6.35106H257.244C259.249 6.33031 261.248 6.55857 263.197 7.03061C264.856 7.43881 266.432 8.12835 267.858 9.06928C269.173 9.97362 270.276 11.1512 271.093 12.5214C271.981 14.0371 272.623 15.6839 272.996 17.4006C273.45 19.4796 273.642 21.6074 273.567 23.7341C273.498 26.3652 273.225 28.9871 272.751 31.5761C272.317 34.2773 271.672 36.9403 270.821 39.5405C270.147 41.6055 269.235 43.585 268.103 45.4391C267.178 46.966 266.022 48.3412 264.678 49.5164C263.464 50.587 262.088 51.4586 260.601 52.0987C259.032 52.7661 257.383 53.2231 255.694 53.4578C253.826 53.7256 251.941 53.8574 250.054 53.8519H231.584L239.861 6.35106ZM251.169 42.4354C251.813 42.4422 252.456 42.3738 253.085 42.2316C253.676 42.0967 254.232 41.8372 254.716 41.4705C255.254 41.0627 255.715 40.5608 256.075 39.989C256.56 39.2575 256.97 38.4789 257.298 37.6649C257.751 36.5773 258.115 35.4546 258.385 34.3079C258.712 32.9488 259.024 31.5082 259.323 29.8093C259.622 28.1104 259.812 26.6833 259.921 25.433C260.015 24.3665 260.038 23.2949 259.989 22.2255C259.957 21.4698 259.796 20.7251 259.513 20.0237C259.296 19.5085 258.972 19.0453 258.562 18.6646C258.178 18.32 257.709 18.0852 257.203 17.985C256.595 17.8578 255.975 17.7985 255.355 17.8084H251.617L247.309 42.449L251.169 42.4354ZM291.92 6.34976L268.698 53.8521H282.488L285.202 48.1925H296.874L297.553 53.8521H311.505L304.827 6.34976H291.92ZM296.06 38.5292H289.586L294.933 26.8301L296.06 38.5292Z"/>
  </g>
</svg>


