<svg fill="none" height="340" viewBox="0 0 340 340" width="340" xmlns="http://www.w3.org/2000/svg" xmlns:xlink="http://www.w3.org/1999/xlink"><clipPath id="a"><path d="m0 0h340v340h-340z"/></clipPath><g clip-path="url(#a)" fill="#000"><path d="m10 0c-5.52285 0-10 4.47716-10 10v81.5555c0 4.9761 0 7.4641.980631 8.7895.875939 1.184 2.130329 1.884 3.597749 2.008 1.6428.139 3.81976-1.203 8.17372-3.8883 45.7235-28.1967 99.5859-44.4647 157.2479-44.4647s111.524 16.268 157.248 44.4647c4.354 2.6853 6.531 4.0273 8.174 3.8883 1.467-.124 2.721-.824 3.597-2.008.981-1.3254.981-3.8135.981-8.7896v-81.5554c0-5.52285-4.477-10-10-10z"/><path d="m340 171.502c0-1.3 0-1.95-.159-2.566-.139-.537-.38-1.072-.689-1.533-.354-.528-.826-.948-1.77-1.787-9.271-8.243-19.154-15.813-29.573-22.631-3.646-2.386-5.469-3.579-7.137-3.469-1.414.093-2.815.85-3.667 1.983-1.005 1.335-1.005 3.584-1.005 8.084v182.417c0 2.8 0 4.2.545 5.27.479.941 1.244 1.706 2.185 2.185 1.07.545 2.47.545 5.27.545h26c5.523 0 10-4.477 10-10z"/><path d="m258 340c2.8 0 4.2 0 5.27-.545.941-.479 1.706-1.244 2.185-2.185.545-1.07.545-2.47.545-5.27v-205.715c0-1.934 0-2.902-.321-3.754-.279-.739-.756-1.436-1.345-1.963-.678-.607-1.554-.947-3.306-1.625-9.541-3.698-19.364-6.832-29.428-9.36-3.158-.793-4.737-1.19-6.073-.778-1.144.352-2.181 1.161-2.802 2.185-.725 1.195-.725 2.875-.725 6.234v214.776c0 2.8 0 4.2.545 5.27.479.941 1.244 1.706 2.185 2.185 1.07.545 2.47.545 5.27.545z"/><path d="m184 340c2.8 0 4.2 0 5.27-.545.941-.479 1.706-1.244 2.185-2.185.545-1.07.545-2.47.545-5.27v-221.715c0-2.585 0-3.878-.507-4.916-.437-.896-1.177-1.679-2.046-2.167-1.007-.566-2.26-.638-4.766-.781-4.858-.28-9.753-.421-14.681-.421s-9.823.141-14.681.421c-2.506.143-3.759.215-4.766.781-.869.488-1.609 1.271-2.046 2.167-.507 1.038-.507 2.331-.507 4.916v221.715c0 2.8 0 4.2.545 5.27.479.941 1.244 1.706 2.185 2.185 1.07.545 2.47.545 5.27.545z"/><path d="m110 340c2.8 0 4.2 0 5.27-.545.941-.479 1.706-1.244 2.185-2.185.545-1.07.545-2.47.545-5.27v-214.776c0-3.359 0-5.039-.725-6.234-.621-1.024-1.658-1.833-2.802-2.185-1.336-.412-2.915-.015-6.073.778-10.0636 2.528-19.8865 5.662-29.4283 9.36-1.7517.678-2.6276 1.018-3.3062 1.625-.5887.527-1.0658 1.224-1.3444 1.963-.3211.852-.3211 1.82-.3211 3.754v205.715c0 2.8 0 4.2.545 5.27.4793.941 1.2442 1.706 2.185 2.185 1.0696.545 2.4697.545 5.27.545z"/><path d="m36 340c2.8003 0 4.2004 0 5.27-.545.9408-.479 1.7057-1.244 2.185-2.185.545-1.07.545-2.47.545-5.27v-182.417c0-4.5 0-6.749-1.0047-8.084-.8524-1.133-2.2529-1.89-3.6675-1.983-1.6674-.11-3.4904 1.083-7.1365 3.469-10.4191 6.818-20.3025 14.388-29.57327 22.631-.944.839-1.416 1.259-1.770498 1.787-.308969.461-.549161.996-.688109 1.533-.159423.616-.159423 1.266-.159423 2.566v158.498c0 5.523 4.47716 10 10 10z"/></g></svg>