<svg width="60" height="60" viewBox="0 0 60 60" fill="none" xmlns="http://www.w3.org/2000/svg">
<path d="M60 50.852C60 50.3122 59.7835 49.7936 59.389 49.425C55.084 45.4031 49.8687 42.2528 44.0501 40.288C43.5744 40.1274 43.1945 40.7059 43.504 41.1013C47.458 46.1537 49.9206 52.7203 51.4118 59.2141C51.5171 59.6724 51.923 60.0001 52.3932 60.0001H58C59.1046 60.0001 60 59.1046 60 58.0001V50.852Z" fill="black"/>
<path d="M43.9965 60C44.6129 60 45.083 59.4476 44.9753 58.8407C43.6865 51.578 41.4054 44.5095 37.5067 39.1855C37.2072 38.7766 36.7538 38.5096 36.252 38.4385C34.2142 38.1497 32.1267 38 30 38C27.8733 38 25.7858 38.1497 23.748 38.4385C23.2462 38.5096 22.7928 38.7766 22.4933 39.1855C18.5946 44.5095 16.3135 51.578 15.0247 58.8407C14.917 59.4476 15.3871 60 16.0035 60H43.9965Z" fill="black"/>
<path d="M8.5882 59.2141C8.48295 59.6724 8.07703 60.0001 7.60682 60.0001H2C0.895432 60.0001 0 59.1046 0 58.0001V50.852C0 50.3122 0.216551 49.7936 0.61102 49.425C4.91604 45.4031 10.1313 42.2528 15.9499 40.288C16.4256 40.1274 16.8055 40.7059 16.4961 41.1013C12.542 46.1537 10.0795 52.7203 8.5882 59.2141Z" fill="black"/>
<path d="M37.9182 30.6004C38.2232 30.6471 38.5 30.4124 38.5 30.1038V20C38.5 19.1716 37.8284 18.5 37 18.5H23C22.1716 18.5 21.5 19.1716 21.5 20V30.1038C21.5 30.4124 21.7768 30.6471 22.0818 30.6004C24.6631 30.2052 27.308 30 30 30C32.692 30 35.3369 30.2052 37.9182 30.6004Z" fill="black"/>
<path d="M27 0C27.5523 0 28 0.447715 28 1V5C28 6.10457 28.8954 7 30 7C31.1046 7 32 6.10457 32 5V1C32 0.447715 32.4477 0 33 0H42.8723C43.274 0 43.5117 0.44992 43.2853 0.781811L39.348 6.55227C38.7254 7.46467 38.9604 8.70901 39.8728 9.33157C40.7852 9.95413 42.0295 9.71916 42.6521 8.80675L48.2145 0.654568C48.494 0.245008 48.9578 0 49.4536 0H58C59.1046 0 60 0.895431 60 2V4.72811C60 5.07166 59.8236 5.39117 59.5329 5.57426L47.2546 13.3076C46.32 13.8963 46.0395 15.1312 46.6282 16.0658C47.2168 17.0004 48.4517 17.2809 49.3864 16.6922L59.2335 10.4901C59.5665 10.2804 60 10.5197 60 10.9132V22C60 22.5523 59.5523 23 59 23H51C49.8954 23 49 23.8954 49 25C49 26.1046 49.8954 27 51 27H59C59.5523 27 60 27.4477 60 28V37.6469C60 38.4621 59.0732 38.9399 58.3937 38.4894C54.1069 35.6473 49.3393 33.4325 44.2389 31.9787C43.8039 31.8548 43.5 31.4598 43.5 31.0075V20C43.5 16.4101 40.5899 13.5 37 13.5H23C19.4101 13.5 16.5 16.4101 16.5 20V31.0075C16.5 31.4598 16.1961 31.8548 15.7611 31.9787C10.6607 33.4325 5.89308 35.6473 1.60631 38.4894C0.926837 38.9399 0 38.4621 0 37.6469V28C0 27.4477 0.447715 27 1 27H9C10.1046 27 11 26.1046 11 25C11 23.8954 10.1046 23 9 23H1C0.447715 23 0 22.5523 0 22V10.9133C0 10.5198 0.43351 10.2805 0.766469 10.4902L10.6136 16.6923C11.5483 17.281 12.7832 17.0005 13.3718 16.0659C13.9605 15.1312 13.68 13.8964 12.7454 13.3077L0.467061 5.57434C0.17636 5.39125 0 5.07175 0 4.72819V2C0 0.895432 0.895431 0 2 0H10.5465C11.0423 0 11.5061 0.245008 11.7855 0.654568L17.3479 8.80675C17.9705 9.71916 19.2148 9.95413 20.1272 9.33157C21.0397 8.70901 21.2746 7.46467 20.6521 6.55226L16.7148 0.781811C16.4883 0.44992 16.726 0 17.1278 0H27Z" fill="black"/>
</svg>
