<svg width="1542" height="638" viewBox="0 0 1542 638" preserveAspectRatio="none" fill="none" xmlns="http://www.w3.org/2000/svg">
<path d="M259 15C244.949 29.0514 218.557 30.7627 201.5 20.1339M162.5 3.00231C171.538 2.91862 180.608 5.10441 188 9.55968" stroke="#C18BF4" stroke-width="6" stroke-linecap="round"/>
<path d="M259 15C275 -1 307 -1 323 15C339 31 371 31 387 15" stroke="#C18BF4" stroke-width="6" stroke-linecap="round"/>
<path d="M387 15C403 -1 435 -1 451 15C467 31 499 31 515 15" stroke="#C18BF4" stroke-width="6" stroke-linecap="round"/>
<path d="M515 15C531 -1 563 -1 579 15C595 31 627 31 643 15" stroke="#C18BF4" stroke-width="6" stroke-linecap="round"/>
<path d="M643 15C659 -1 691 -1 707 15C723 31 755 31 771 15" stroke="#C18BF4" stroke-width="6" stroke-linecap="round"/>
<path d="M771 15C787 -1 819 -1 835 15C851 31 883 31 899 15" stroke="#C18BF4" stroke-width="6" stroke-linecap="round"/>
<path d="M899 15C915 -1 947 -1 963 15C979 31 1011 31 1027 15" stroke="#C18BF4" stroke-width="6" stroke-linecap="round"/>
<path d="M1027 15C1043 -1 1075 -1 1091 15C1107 31 1139 31 1155 15" stroke="#C18BF4" stroke-width="6" stroke-linecap="round"/>
<path d="M1155 15C1171 -1 1203 -1 1219 15C1235 31 1267 31 1283 15" stroke="#C18BF4" stroke-width="6" stroke-linecap="round"/>
<path d="M1283 15C1299 -1 1331 -1 1347 15C1363 31 1395 31 1411 15" stroke="#C18BF4" stroke-width="6" stroke-linecap="round"/>
<path d="M1411 15C1425.05 0.948616 1451.44 -0.762681 1468.5 9.86611M1539 15C1524.67 29.329 1497.51 30.8255 1480.5 19.4894" stroke="#C18BF4" stroke-width="6" stroke-linecap="round"/>
<path d="M3 47C19 31 51 31 67 47C71.9508 51.9508 78.4334 55.3697 85.5 57.2567M131 47C124.788 53.2123 116.163 57.0126 107 58.4008" stroke="#C18BF4" stroke-width="6" stroke-linecap="round"/>
<path d="M131 47C147 31 179 31 195 47C211 63 243 63 259 47" stroke="#C18BF4" stroke-width="6" stroke-linecap="round"/>
<path d="M259 47C275 31 307 31 323 47C339 63 371 63 387 47" stroke="#C18BF4" stroke-width="6" stroke-linecap="round"/>
<path d="M387 47C403 31 435 31 451 47C467 63 499 63 515 47" stroke="#C18BF4" stroke-width="6" stroke-linecap="round"/>
<path d="M515 47C531 31 563 31 579 47C595 63 627 63 643 47" stroke="#C18BF4" stroke-width="6" stroke-linecap="round"/>
<path d="M643 47C659 31 691 31 707 47C723 63 755 63 771 47" stroke="#C18BF4" stroke-width="6" stroke-linecap="round"/>
<path d="M771 47C787 31 819 31 835 47C851 63 883 63 899 47" stroke="#C18BF4" stroke-width="6" stroke-linecap="round"/>
<path d="M899 47C915 31 947 31 963 47C979 63 1011 63 1027 47" stroke="#C18BF4" stroke-width="6" stroke-linecap="round"/>
<path d="M1027 47C1043 31 1075 31 1091 47C1107 63 1139 63 1155 47" stroke="#C18BF4" stroke-width="6" stroke-linecap="round"/>
<path d="M1155 47C1171 31 1203 31 1219 47C1235 63 1267 63 1283 47" stroke="#C18BF4" stroke-width="6" stroke-linecap="round"/>
<path d="M1283 47C1289.66 40.3375 1299.1 36.4493 1309 35.3354M1411 47C1395 63 1363 63 1347 47C1340.79 40.7877 1332.16 36.9875 1323 35.5993" stroke="#C18BF4" stroke-width="6" stroke-linecap="round"/>
<path d="M1411 47C1427 31 1459 31 1475 47C1477.75 49.7486 1480.97 52.025 1484.5 53.8292M1507.5 58.9977C1503.8 59.032 1500.09 58.6858 1496.5 57.9592" stroke="#C18BF4" stroke-width="6" stroke-linecap="round"/>
<path d="M131 79C122.778 87.2222 110.33 91.2192 98 90.9907" stroke="#C18BF4" stroke-width="6" stroke-linecap="round"/>
<path d="M131 79C147 63 179 63 195 79C211 95 243 95 259 79" stroke="#C18BF4" stroke-width="6" stroke-linecap="round"/>
<path d="M259 79C275 63 307 63 323 79C339 95 371 95 387 79" stroke="#C18BF4" stroke-width="6" stroke-linecap="round"/>
<path d="M387 79C403 63 435 63 451 79C467 95 499 95 515 79" stroke="#C18BF4" stroke-width="6" stroke-linecap="round"/>
<path d="M515 79C531 63 563 63 579 79C595 95 627 95 643 79" stroke="#C18BF4" stroke-width="6" stroke-linecap="round"/>
<path d="M643 79C659 63 691 63 707 79C723 95 755 95 771 79" stroke="#C18BF4" stroke-width="6" stroke-linecap="round"/>
<path d="M771 79C787 63 819 63 835 79C851 95 883 95 899 79" stroke="#C18BF4" stroke-width="6" stroke-linecap="round"/>
<path d="M899 79C915 63 947 63 963 79C979 95 1011 95 1027 79" stroke="#C18BF4" stroke-width="6" stroke-linecap="round"/>
<path d="M1027 79C1043 63 1075 63 1091 79C1107 95 1139 95 1155 79" stroke="#C18BF4" stroke-width="6" stroke-linecap="round"/>
<path d="M1155 79C1171 63 1203 63 1219 79C1235 95 1267 95 1283 79" stroke="#C18BF4" stroke-width="6" stroke-linecap="round"/>
<path d="M1283 79C1299 63 1331 63 1347 79C1353.33 85.3252 1362.15 89.1499 1371.5 90.4741M1411 79C1404.23 85.7746 1394.58 89.6807 1384.5 90.7184" stroke="#C18BF4" stroke-width="6" stroke-linecap="round"/>
<path d="M131 111C147 95 179 95 195 111C211 127 243 127 259 111" stroke="#C18BF4" stroke-width="6" stroke-linecap="round"/>
<path d="M259 111C275 95 307 95 323 111C339 127 371 127 387 111" stroke="#C18BF4" stroke-width="6" stroke-linecap="round"/>
<path d="M387 111C403 95 435 95 451 111C467 127 499 127 515 111" stroke="#C18BF4" stroke-width="6" stroke-linecap="round"/>
<path d="M515 111C531 95 563 95 579 111C595 127 627 127 643 111" stroke="#C18BF4" stroke-width="6" stroke-linecap="round"/>
<path d="M643 111C659 95 691 95 707 111C723 127 755 127 771 111" stroke="#C18BF4" stroke-width="6" stroke-linecap="round"/>
<path d="M771 111C787 95 819 95 835 111C851 127 883 127 899 111" stroke="#C18BF4" stroke-width="6" stroke-linecap="round"/>
<path d="M899 111C915 95 947 95 963 111C979 127 1011 127 1027 111" stroke="#C18BF4" stroke-width="6" stroke-linecap="round"/>
<path d="M1027 111C1043 95 1075 95 1091 111C1107 127 1139 127 1155 111" stroke="#C18BF4" stroke-width="6" stroke-linecap="round"/>
<path d="M1155 111C1169.11 96.8899 1195.66 95.2232 1212.71 106M1283 111C1268.81 125.189 1242.04 126.795 1225 115.817" stroke="#C18BF4" stroke-width="6" stroke-linecap="round"/>
<path d="M1283 111C1299 95 1331 95 1347 111" stroke="#C18BF4" stroke-width="6" stroke-linecap="round"/>
<path d="M259 143C245.22 156.78 219.573 158.692 202.5 148.737M162.5 131.002C170.739 130.926 179.004 132.735 186 136.431" stroke="#C18BF4" stroke-width="6" stroke-linecap="round"/>
<path d="M259 143C275 127 307 127 323 143C339 159 371 159 387 143" stroke="#C18BF4" stroke-width="6" stroke-linecap="round"/>
<path d="M387 143C403 127 435 127 451 143C467 159 499 159 515 143" stroke="#C18BF4" stroke-width="6" stroke-linecap="round"/>
<path d="M515 143C531 127 563 127 579 143C595 159 627 159 643 143" stroke="#C18BF4" stroke-width="6" stroke-linecap="round"/>
<path d="M643 143C659 127 691 127 707 143C723 159 755 159 771 143" stroke="#C18BF4" stroke-width="6" stroke-linecap="round"/>
<path d="M771 143C787 127 819 127 835 143C851 159 883 159 899 143" stroke="#C18BF4" stroke-width="6" stroke-linecap="round"/>
<path d="M899 143C915 127 947 127 963 143C979 159 1011 159 1027 143" stroke="#C18BF4" stroke-width="6" stroke-linecap="round"/>
<path d="M1027 143C1043 127 1075 127 1091 143C1107 159 1139 159 1155 143" stroke="#C18BF4" stroke-width="6" stroke-linecap="round"/>
<path d="M1155 143C1171 127 1203 127 1219 143C1233.53 157.532 1261.26 158.865 1278.22 147" stroke="#C18BF4" stroke-width="6" stroke-linecap="round"/>
<path d="M1411 143C1404 149.998 1393.94 153.936 1383.5 154.812M1287.5 139.2C1304.43 127.12 1332.39 128.387 1347 143C1353.55 149.55 1362.78 153.419 1372.5 154.606" stroke="#C18BF4" stroke-width="6" stroke-linecap="round"/>
<path d="M1411 143C1419.11 134.889 1431.33 130.89 1443.5 131.002" stroke="#C18BF4" stroke-width="6" stroke-linecap="round"/>
<path d="M131 175C115 191 83 191 67 175C58.8889 166.889 46.6659 162.89 34.5 163.002" stroke="#C18BF4" stroke-width="6" stroke-linecap="round"/>
<path d="M131 175C147 159 179 159 195 175C200.758 180.758 208.589 184.444 217 186.058M259 175C253.242 180.758 245.411 184.444 237 186.058" stroke="#C18BF4" stroke-width="6" stroke-linecap="round"/>
<path d="M259 175C275 159 307 159 323 175C339 191 371 191 387 175" stroke="#C18BF4" stroke-width="6" stroke-linecap="round"/>
<path d="M387 175C403 159 435 159 451 175C467 191 499 191 515 175" stroke="#C18BF4" stroke-width="6" stroke-linecap="round"/>
<path d="M515 175C531 159 563 159 579 175C595 191 627 191 643 175" stroke="#C18BF4" stroke-width="6" stroke-linecap="round"/>
<path d="M643 175C659 159 691 159 707 175C723 191 755 191 771 175" stroke="#C18BF4" stroke-width="6" stroke-linecap="round"/>
<path d="M771 175C787 159 819 159 835 175C851 191 883 191 899 175" stroke="#C18BF4" stroke-width="6" stroke-linecap="round"/>
<path d="M899 175C915 159 947 159 963 175C979 191 1011 191 1027 175" stroke="#C18BF4" stroke-width="6" stroke-linecap="round"/>
<path d="M1027 175C1043 159 1075 159 1091 175C1107 191 1139 191 1155 175" stroke="#C18BF4" stroke-width="6" stroke-linecap="round"/>
<path d="M1155 175C1171 159 1203 159 1219 175C1235 191 1267 191 1283 175" stroke="#C18BF4" stroke-width="6" stroke-linecap="round"/>
<path d="M1283 175C1299 159 1331 159 1347 175C1363 191 1395 191 1411 175" stroke="#C18BF4" stroke-width="6" stroke-linecap="round"/>
<path d="M1411 175C1417.55 168.45 1426.78 164.581 1436.5 163.394M1475 175C1468.45 168.45 1459.22 164.581 1449.5 163.394" stroke="#C18BF4" stroke-width="6" stroke-linecap="round"/>
<path d="M3 207C16.6458 193.354 41.9294 191.346 59 200.976M131 207C117.618 220.382 93.0447 222.572 76 213.569" stroke="#C18BF4" stroke-width="6" stroke-linecap="round"/>
<path d="M131 207C147 191 179 191 195 207C211 223 243 223 259 207" stroke="#C18BF4" stroke-width="6" stroke-linecap="round"/>
<path d="M259 207C275 191 307 191 323 207C339 223 371 223 387 207" stroke="#C18BF4" stroke-width="6" stroke-linecap="round"/>
<path d="M387 207C403 191 435 191 451 207C467 223 499 223 515 207" stroke="#C18BF4" stroke-width="6" stroke-linecap="round"/>
<path d="M515 207C531 191 563 191 579 207C595 223 627 223 643 207" stroke="#C18BF4" stroke-width="6" stroke-linecap="round"/>
<path d="M643 207C659 191 691 191 707 207C723 223 755 223 771 207" stroke="#C18BF4" stroke-width="6" stroke-linecap="round"/>
<path d="M771 207C787 191 819 191 835 207C851 223 883 223 899 207" stroke="#C18BF4" stroke-width="6" stroke-linecap="round"/>
<path d="M899 207C915 191 947 191 963 207C979 223 1011 223 1027 207" stroke="#C18BF4" stroke-width="6" stroke-linecap="round"/>
<path d="M1027 207C1043 191 1075 191 1091 207C1107 223 1139 223 1155 207" stroke="#C18BF4" stroke-width="6" stroke-linecap="round"/>
<path d="M1155 207C1171 191 1203 191 1219 207C1235 223 1267 223 1283 207" stroke="#C18BF4" stroke-width="6" stroke-linecap="round"/>
<path d="M1283 207C1289.55 200.45 1298.78 196.581 1308.5 195.394M1411 207C1395 223 1363 223 1347 207C1340.23 200.226 1330.58 196.319 1320.5 195.282" stroke="#C18BF4" stroke-width="6" stroke-linecap="round"/>
<path d="M131 239C115 255 83 255 67 239C65.329 237.329 63.4835 235.833 61.5 234.511M35 227C38.8783 227 42.7567 227.418 46.5 228.253" stroke="#C18BF4" stroke-width="6" stroke-linecap="round"/>
<path d="M131 239C136.644 233.356 144.279 229.703 152.5 228.041M259 239C243 255 211 255 195 239C189.356 233.356 181.721 229.703 173.5 228.041" stroke="#C18BF4" stroke-width="6" stroke-linecap="round"/>
<path d="M259 239C275 223 307 223 323 239C339 255 371 255 387 239" stroke="#C18BF4" stroke-width="6" stroke-linecap="round"/>
<path d="M387 239C403 223 435 223 451 239C467 255 499 255 515 239" stroke="#C18BF4" stroke-width="6" stroke-linecap="round"/>
<path d="M515 239C531 223 563 223 579 239C595 255 627 255 643 239" stroke="#C18BF4" stroke-width="6" stroke-linecap="round"/>
<path d="M643 239C659 223 691 223 707 239C723 255 755 255 771 239" stroke="#C18BF4" stroke-width="6" stroke-linecap="round"/>
<path d="M771 239C787 223 819 223 835 239C851 255 883 255 899 239" stroke="#C18BF4" stroke-width="6" stroke-linecap="round"/>
<path d="M899 239C915 223 947 223 963 239C979 255 1011 255 1027 239" stroke="#C18BF4" stroke-width="6" stroke-linecap="round"/>
<path d="M1027 239C1043 223 1075 223 1091 239C1107 255 1139 255 1155 239" stroke="#C18BF4" stroke-width="6" stroke-linecap="round"/>
<path d="M1155 239C1171 223 1203 223 1219 239C1235 255 1267 255 1283 239" stroke="#C18BF4" stroke-width="6" stroke-linecap="round"/>
<path d="M1283 239C1297.61 224.387 1325.57 223.12 1342.5 235.2M1411 239C1404.23 245.775 1394.58 249.681 1384.5 250.718M1352 243.15C1358.15 247.392 1365.69 249.915 1373.5 250.718" stroke="#C18BF4" stroke-width="6" stroke-linecap="round"/>
<path d="M1411 239C1427 223 1459 223 1475 239C1483 247 1495 251 1507 251" stroke="#C18BF4" stroke-width="6" stroke-linecap="round"/>
<path d="M131 271C147 255 179 255 195 271C211 287 243 287 259 271" stroke="#C18BF4" stroke-width="6" stroke-linecap="round"/>
<path d="M259 271C275 255 307 255 323 271C339 287 371 287 387 271" stroke="#C18BF4" stroke-width="6" stroke-linecap="round"/>
<path d="M387 271C403 255 435 255 451 271C467 287 499 287 515 271" stroke="#C18BF4" stroke-width="6" stroke-linecap="round"/>
<path d="M515 271C531 255 563 255 579 271C595 287 627 287 643 271" stroke="#C18BF4" stroke-width="6" stroke-linecap="round"/>
<path d="M643 271C659 255 691 255 707 271C723 287 755 287 771 271" stroke="#C18BF4" stroke-width="6" stroke-linecap="round"/>
<path d="M771 271C787 255 819 255 835 271C851 287 883 287 899 271" stroke="#C18BF4" stroke-width="6" stroke-linecap="round"/>
<path d="M899 271C915 255 947 255 963 271C979 287 1011 287 1027 271" stroke="#C18BF4" stroke-width="6" stroke-linecap="round"/>
<path d="M1027 271C1043 255 1075 255 1091 271C1096.87 276.872 1104.9 280.589 1113.5 282.151M1155 271C1148.23 277.775 1138.58 281.681 1128.5 282.718" stroke="#C18BF4" stroke-width="6" stroke-linecap="round"/>
<path d="M1155 271C1171 255 1203 255 1219 271C1235 287 1267 287 1283 271" stroke="#C18BF4" stroke-width="6" stroke-linecap="round"/>
<path d="M1283 271C1299 255 1331 255 1347 271C1363 287 1395 287 1411 271" stroke="#C18BF4" stroke-width="6" stroke-linecap="round"/>
<path d="M1411 271C1427 255 1459 255 1475 271C1481.55 277.55 1490.78 281.419 1500.5 282.606M1539 271C1532.11 277.886 1522.26 281.809 1512 282.768" stroke="#C18BF4" stroke-width="6" stroke-linecap="round"/>
<path d="M67 303C80.3817 316.382 104.955 318.572 122 309.569" stroke="#C18BF4" stroke-width="6" stroke-linecap="round"/>
<path d="M259 303C243 319 211 319 195 303C180.949 288.949 154.557 287.237 137.5 297.866" stroke="#C18BF4" stroke-width="6" stroke-linecap="round"/>
<path d="M259 303C275 287 307 287 323 303C339 319 371 319 387 303" stroke="#C18BF4" stroke-width="6" stroke-linecap="round"/>
<path d="M387 303C403 287 435 287 451 303C467 319 499 319 515 303" stroke="#C18BF4" stroke-width="6" stroke-linecap="round"/>
<path d="M515 303C531 287 563 287 579 303C595 319 627 319 643 303" stroke="#C18BF4" stroke-width="6" stroke-linecap="round"/>
<path d="M643 303C659 287 691 287 707 303C723 319 755 319 771 303" stroke="#C18BF4" stroke-width="6" stroke-linecap="round"/>
<path d="M771 303C787 287 819 287 835 303C851 319 883 319 899 303" stroke="#C18BF4" stroke-width="6" stroke-linecap="round"/>
<path d="M899 303C915 287 947 287 963 303C979 319 1011 319 1027 303" stroke="#C18BF4" stroke-width="6" stroke-linecap="round"/>
<path d="M1027 303C1043 287 1075 287 1091 303C1107 319 1139 319 1155 303" stroke="#C18BF4" stroke-width="6" stroke-linecap="round"/>
<path d="M1155 303C1171 287 1203 287 1219 303C1235 319 1267 319 1283 303" stroke="#C18BF4" stroke-width="6" stroke-linecap="round"/>
<path d="M1283 303C1297.76 288.242 1326.13 287.096 1343 299.563M1411 303C1396.1 317.905 1367.31 318.925 1350.5 306.061" stroke="#C18BF4" stroke-width="6" stroke-linecap="round"/>
<path d="M1411 303C1419.11 294.889 1431.33 290.89 1443.5 291.002" stroke="#C18BF4" stroke-width="6" stroke-linecap="round"/>
<path d="M195 335C211 351 243 351 259 335" stroke="#C18BF4" stroke-width="6" stroke-linecap="round"/>
<path d="M259 335C264.067 329.933 270.74 326.47 278 324.613M387 335C371 351 339 351 323 335C317.933 329.933 311.26 326.47 304 324.613" stroke="#C18BF4" stroke-width="6" stroke-linecap="round"/>
<path d="M387 335C403 319 435 319 451 335C467 351 499 351 515 335" stroke="#C18BF4" stroke-width="6" stroke-linecap="round"/>
<path d="M515 335C531 319 563 319 579 335C595 351 627 351 643 335" stroke="#C18BF4" stroke-width="6" stroke-linecap="round"/>
<path d="M643 335C659 319 691 319 707 335C723 351 755 351 771 335" stroke="#C18BF4" stroke-width="6" stroke-linecap="round"/>
<path d="M771 335C787 319 819 319 835 335C851 351 883 351 899 335" stroke="#C18BF4" stroke-width="6" stroke-linecap="round"/>
<path d="M899 335C915 319 947 319 963 335C979 351 1011 351 1027 335" stroke="#C18BF4" stroke-width="6" stroke-linecap="round"/>
<path d="M1027 335C1043 319 1075 319 1091 335C1107 351 1139 351 1155 335" stroke="#C18BF4" stroke-width="6" stroke-linecap="round"/>
<path d="M1155 335C1171 319 1203 319 1219 335C1235 351 1267 351 1283 335" stroke="#C18BF4" stroke-width="6" stroke-linecap="round"/>
<path d="M1283 335C1290.11 327.89 1300.38 323.94 1311 323.148M1411 335C1395 351 1363 351 1347 335C1340.56 328.562 1331.53 324.715 1322 323.457" stroke="#C18BF4" stroke-width="6" stroke-linecap="round"/>
<path d="M131 367C123 375 111 379 99 379" stroke="#C18BF4" stroke-width="6" stroke-linecap="round"/>
<path d="M131 367C147 351 179 351 195 367C211 383 243 383 259 367" stroke="#C18BF4" stroke-width="6" stroke-linecap="round"/>
<path d="M259 367C275 351 307 351 323 367C339 383 371 383 387 367" stroke="#C18BF4" stroke-width="6" stroke-linecap="round"/>
<path d="M387 367C403 351 435 351 451 367C467 383 499 383 515 367" stroke="#C18BF4" stroke-width="6" stroke-linecap="round"/>
<path d="M515 367C520.414 361.586 527.661 358.003 535.5 356.253M643 367C627 383 595 383 579 367C573.586 361.586 566.339 358.003 558.5 356.253" stroke="#C18BF4" stroke-width="6" stroke-linecap="round"/>
<path d="M643 367C659 351 691 351 707 367C723 383 755 383 771 367" stroke="#C18BF4" stroke-width="6" stroke-linecap="round"/>
<path d="M771 367C787 351 819 351 835 367C851 383 883 383 899 367" stroke="#C18BF4" stroke-width="6" stroke-linecap="round"/>
<path d="M899 367C915 351 947 351 963 367C979 383 1011 383 1027 367" stroke="#C18BF4" stroke-width="6" stroke-linecap="round"/>
<path d="M1027 367C1043 351 1075 351 1091 367C1107 383 1139 383 1155 367" stroke="#C18BF4" stroke-width="6" stroke-linecap="round"/>
<path d="M1155 367C1171 351 1203 351 1219 367C1235 383 1267 383 1283 367" stroke="#C18BF4" stroke-width="6" stroke-linecap="round"/>
<path d="M1283 367C1299 351 1331 351 1347 367C1361.9 381.905 1390.69 382.925 1407.5 370.061" stroke="#C18BF4" stroke-width="6" stroke-linecap="round"/>
<path d="M1506.5 378.998C1494.67 378.888 1482.89 374.889 1475 367C1467.89 359.89 1457.62 355.94 1447 355.148M1414.5 363.939C1421.28 358.748 1430.02 355.818 1439 355.148" stroke="#C18BF4" stroke-width="6" stroke-linecap="round"/>
<path d="M67 399C83 415 115 415 131 399" stroke="#C18BF4" stroke-width="6" stroke-linecap="round"/>
<path d="M131 399C143.867 386.133 167.081 383.614 184 391.441M259 399C246.633 411.367 224.708 414.175 208 407.425" stroke="#C18BF4" stroke-width="6" stroke-linecap="round"/>
<path d="M259 399C275 383 307 383 323 399C339 415 371 415 387 399" stroke="#C18BF4" stroke-width="6" stroke-linecap="round"/>
<path d="M387 399C403 383 435 383 451 399C467 415 499 415 515 399" stroke="#C18BF4" stroke-width="6" stroke-linecap="round"/>
<path d="M515 399C531 383 563 383 579 399C595 415 627 415 643 399" stroke="#C18BF4" stroke-width="6" stroke-linecap="round"/>
<path d="M643 399C659 383 691 383 707 399C723 415 755 415 771 399" stroke="#C18BF4" stroke-width="6" stroke-linecap="round"/>
<path d="M771 399C787 383 819 383 835 399C851 415 883 415 899 399" stroke="#C18BF4" stroke-width="6" stroke-linecap="round"/>
<path d="M899 399C915 383 947 383 963 399C979 415 1011 415 1027 399" stroke="#C18BF4" stroke-width="6" stroke-linecap="round"/>
<path d="M1027 399C1041.05 384.949 1067.44 383.237 1084.5 393.866M1155 399C1140.81 413.189 1114.04 414.795 1097 403.817" stroke="#C18BF4" stroke-width="6" stroke-linecap="round"/>
<path d="M1155 399C1171 383 1203 383 1219 399C1235 415 1267 415 1283 399" stroke="#C18BF4" stroke-width="6" stroke-linecap="round"/>
<path d="M1283 399C1291.22 390.778 1303.67 386.781 1316 387.009" stroke="#C18BF4" stroke-width="6" stroke-linecap="round"/>
<path d="M131 431C115 447 83 447 67 431C58.7778 422.778 46.3302 418.781 34 419.009" stroke="#C18BF4" stroke-width="6" stroke-linecap="round"/>
<path d="M131 431C147 415 179 415 195 431C211 447 243 447 259 431" stroke="#C18BF4" stroke-width="6" stroke-linecap="round"/>
<path d="M259 431C275 415 307 415 323 431C339 447 371 447 387 431" stroke="#C18BF4" stroke-width="6" stroke-linecap="round"/>
<path d="M387 431C400.513 417.487 425.439 415.387 442.5 424.699M515 431C501.618 444.382 477.045 446.572 460 437.569" stroke="#C18BF4" stroke-width="6" stroke-linecap="round"/>
<path d="M515 431C531 415 563 415 579 431C595 447 627 447 643 431" stroke="#C18BF4" stroke-width="6" stroke-linecap="round"/>
<path d="M643 431C659 415 691 415 707 431C723 447 755 447 771 431" stroke="#C18BF4" stroke-width="6" stroke-linecap="round"/>
<path d="M771 431C787 415 819 415 835 431C851 447 883 447 899 431" stroke="#C18BF4" stroke-width="6" stroke-linecap="round"/>
<path d="M899 431C915 415 947 415 963 431C979 447 1011 447 1027 431" stroke="#C18BF4" stroke-width="6" stroke-linecap="round"/>
<path d="M1027 431C1043 415 1075 415 1091 431C1107 447 1139 447 1155 431" stroke="#C18BF4" stroke-width="6" stroke-linecap="round"/>
<path d="M1155 431C1171 415 1203 415 1219 431C1233.76 445.758 1262.13 446.904 1279 434.437" stroke="#C18BF4" stroke-width="6" stroke-linecap="round"/>
<path d="M1379 443C1367 443 1355 439 1347 431C1332.53 416.53 1304.97 415.146 1288 426.85" stroke="#C18BF4" stroke-width="6" stroke-linecap="round"/>
<path d="M3 463C6.13321 459.867 9.87997 457.347 14 455.441M131 463C115 479 83 479 67 463C57.6625 453.663 42.8757 449.774 29 451.335" stroke="#C18BF4" stroke-width="6" stroke-linecap="round"/>
<path d="M131 463C136.986 457.014 145.211 453.268 154 451.761M259 463C243 479 211 479 195 463C189.701 457.701 182.647 454.157 175 452.368" stroke="#C18BF4" stroke-width="6" stroke-linecap="round"/>
<path d="M259 463C275 447 307 447 323 463C339 479 371 479 387 463" stroke="#C18BF4" stroke-width="6" stroke-linecap="round"/>
<path d="M387 463C403 447 435 447 451 463C467 479 499 479 515 463" stroke="#C18BF4" stroke-width="6" stroke-linecap="round"/>
<path d="M515 463C531 447 563 447 579 463C595 479 627 479 643 463" stroke="#C18BF4" stroke-width="6" stroke-linecap="round"/>
<path d="M643 463C659 447 691 447 707 463C723 479 755 479 771 463" stroke="#C18BF4" stroke-width="6" stroke-linecap="round"/>
<path d="M771 463C787 447 819 447 835 463C851 479 883 479 899 463" stroke="#C18BF4" stroke-width="6" stroke-linecap="round"/>
<path d="M899 463C915 447 947 447 963 463C979 479 1011 479 1027 463" stroke="#C18BF4" stroke-width="6" stroke-linecap="round"/>
<path d="M1027 463C1043 447 1075 447 1091 463C1107 479 1139 479 1155 463" stroke="#C18BF4" stroke-width="6" stroke-linecap="round"/>
<path d="M1155 463C1171 447 1203 447 1219 463C1235 479 1267 479 1283 463" stroke="#C18BF4" stroke-width="6" stroke-linecap="round"/>
<path d="M1283 463C1299 447 1331 447 1347 463C1363 479 1395 479 1411 463" stroke="#C18BF4" stroke-width="6" stroke-linecap="round"/>
<path d="M1411 463C1417.77 456.225 1427.42 452.319 1437.5 451.281M1539 463C1536.51 465.487 1533.64 467.587 1530.5 469.301M1447 451.148C1457.62 451.94 1467.89 455.89 1475 463C1486.4 474.402 1505.93 477.678 1522 472.83" stroke="#C18BF4" stroke-width="6" stroke-linecap="round"/>
<path d="M131 495C147 479 179 479 195 495C211 511 243 511 259 495" stroke="#C18BF4" stroke-width="6" stroke-linecap="round"/>
<path d="M259 495C275 479 307 479 323 495C339 511 371 511 387 495" stroke="#C18BF4" stroke-width="6" stroke-linecap="round"/>
<path d="M387 495C403 479 435 479 451 495C467 511 499 511 515 495" stroke="#C18BF4" stroke-width="6" stroke-linecap="round"/>
<path d="M515 495C531 479 563 479 579 495C592.646 508.646 617.929 510.654 635 501.024" stroke="#C18BF4" stroke-width="6" stroke-linecap="round"/>
<path d="M771 495C755 511 723 511 707 495C693.085 481.085 667.069 479.272 650 489.56" stroke="#C18BF4" stroke-width="6" stroke-linecap="round"/>
<path d="M771 495C787 479 819 479 835 495C851 511 883 511 899 495" stroke="#C18BF4" stroke-width="6" stroke-linecap="round"/>
<path d="M899 495C915 479 947 479 963 495C979 511 1011 511 1027 495" stroke="#C18BF4" stroke-width="6" stroke-linecap="round"/>
<path d="M1027 495C1043 479 1075 479 1091 495C1107 511 1139 511 1155 495" stroke="#C18BF4" stroke-width="6" stroke-linecap="round"/>
<path d="M1155 495C1171 479 1203 479 1219 495C1235 511 1267 511 1283 495" stroke="#C18BF4" stroke-width="6" stroke-linecap="round"/>
<path d="M1283 495C1290.22 487.779 1300.7 483.817 1311.5 483.114M1411 495C1395 511 1363 511 1347 495C1340.45 488.45 1331.22 484.581 1321.5 483.394" stroke="#C18BF4" stroke-width="6" stroke-linecap="round"/>
<path d="M1411 495C1425.76 480.242 1454.13 479.096 1471 491.563M1507 507C1496.86 507 1486.73 504.146 1479 498.437" stroke="#C18BF4" stroke-width="6" stroke-linecap="round"/>
<path d="M3 527C16.6458 513.354 41.9294 511.346 59 520.976M131 527C117.487 540.513 92.5609 542.613 75.5 533.301" stroke="#C18BF4" stroke-width="6" stroke-linecap="round"/>
<path d="M131 527C147 511 179 511 195 527C211 543 243 543 259 527" stroke="#C18BF4" stroke-width="6" stroke-linecap="round"/>
<path d="M259 527C275 511 307 511 323 527C339 543 371 543 387 527" stroke="#C18BF4" stroke-width="6" stroke-linecap="round"/>
<path d="M387 527C403 511 435 511 451 527C457.099 533.099 465.523 536.873 474.5 538.323M515 527C508.901 533.099 500.477 536.873 491.5 538.323" stroke="#C18BF4" stroke-width="6" stroke-linecap="round"/>
<path d="M515 527C531 511 563 511 579 527C595 543 627 543 643 527" stroke="#C18BF4" stroke-width="6" stroke-linecap="round"/>
<path d="M643 527C659 511 691 511 707 527C723 543 755 543 771 527" stroke="#C18BF4" stroke-width="6" stroke-linecap="round"/>
<path d="M771 527C776.986 521.014 785.211 517.268 794 515.761M899 527C883 543 851 543 835 527C829.014 521.014 820.789 517.268 812 515.761" stroke="#C18BF4" stroke-width="6" stroke-linecap="round"/>
<path d="M899 527C915 511 947 511 963 527C979 543 1011 543 1027 527" stroke="#C18BF4" stroke-width="6" stroke-linecap="round"/>
<path d="M1027 527C1043 511 1075 511 1091 527C1107 543 1139 543 1155 527" stroke="#C18BF4" stroke-width="6" stroke-linecap="round"/>
<path d="M1155 527C1171 511 1203 511 1219 527C1235 543 1267 543 1283 527" stroke="#C18BF4" stroke-width="6" stroke-linecap="round"/>
<path d="M1283 527C1299 511 1331 511 1347 527C1353.77 533.775 1363.42 537.681 1373.5 538.718M1411 527C1404.23 533.775 1394.58 537.681 1384.5 538.718" stroke="#C18BF4" stroke-width="6" stroke-linecap="round"/>
<path d="M1411 527C1427 511 1459 511 1475 527" stroke="#C18BF4" stroke-width="6" stroke-linecap="round"/>
<path d="M259 559C264.067 553.933 270.74 550.47 278 548.612M387 559C371 575 339 575 323 559C316.002 552.002 305.943 548.064 295.5 547.188" stroke="#C18BF4" stroke-width="6" stroke-linecap="round"/>
<path d="M387 559C403 543 435 543 451 559C467 575 499 575 515 559" stroke="#C18BF4" stroke-width="6" stroke-linecap="round"/>
<path d="M515 559C531 543 563 543 579 559C595 575 627 575 643 559" stroke="#C18BF4" stroke-width="6" stroke-linecap="round"/>
<path d="M643 559C659 543 691 543 707 559C723 575 755 575 771 559" stroke="#C18BF4" stroke-width="6" stroke-linecap="round"/>
<path d="M771 559C787 543 819 543 835 559C851 575 883 575 899 559" stroke="#C18BF4" stroke-width="6" stroke-linecap="round"/>
<path d="M899 559C915 543 947 543 963 559C979 575 1011 575 1027 559" stroke="#C18BF4" stroke-width="6" stroke-linecap="round"/>
<path d="M1027 559C1043 543 1075 543 1091 559C1107 575 1139 575 1155 559" stroke="#C18BF4" stroke-width="6" stroke-linecap="round"/>
<path d="M1155 559C1171 543 1203 543 1219 559C1235 575 1267 575 1283 559" stroke="#C18BF4" stroke-width="6" stroke-linecap="round"/>
<path d="M1283 559C1299 543 1331 543 1347 559C1361.76 573.758 1390.13 574.904 1407 562.437" stroke="#C18BF4" stroke-width="6" stroke-linecap="round"/>
<path d="M1443.5 547.002C1432.94 546.905 1422.34 549.904 1414.42 556" stroke="#C18BF4" stroke-width="6" stroke-linecap="round"/>
<path d="M195 591C211 607 243 607 259 591" stroke="#C18BF4" stroke-width="6" stroke-linecap="round"/>
<path d="M259 591C275 575 307 575 323 591C339 607 371 607 387 591" stroke="#C18BF4" stroke-width="6" stroke-linecap="round"/>
<path d="M387 591C403 575 435 575 451 591C467 607 499 607 515 591" stroke="#C18BF4" stroke-width="6" stroke-linecap="round"/>
<path d="M515 591C531 575 563 575 579 591C595 607 627 607 643 591" stroke="#C18BF4" stroke-width="6" stroke-linecap="round"/>
<path d="M643 591C659 575 691 575 707 591C723 607 755 607 771 591" stroke="#C18BF4" stroke-width="6" stroke-linecap="round"/>
<path d="M771 591C787 575 819 575 835 591C851 607 883 607 899 591" stroke="#C18BF4" stroke-width="6" stroke-linecap="round"/>
<path d="M899 591C915 575 947 575 963 591C979 607 1011 607 1027 591" stroke="#C18BF4" stroke-width="6" stroke-linecap="round"/>
<path d="M1027 591C1043 575 1075 575 1091 591C1107 607 1139 607 1155 591" stroke="#C18BF4" stroke-width="6" stroke-linecap="round"/>
<path d="M1155 591C1171 575 1203 575 1219 591C1235 607 1267 607 1283 591" stroke="#C18BF4" stroke-width="6" stroke-linecap="round"/>
<path d="M1283 591C1299 575 1331 575 1347 591C1363 607 1395 607 1411 591" stroke="#C18BF4" stroke-width="6" stroke-linecap="round"/>
<path d="M1411 591C1427 575 1459 575 1475 591C1483 599 1495 603 1507 603" stroke="#C18BF4" stroke-width="6" stroke-linecap="round"/>
<path d="M259 623C252.788 629.212 244.163 633.013 235 634.401M163 611C175 611 187 615 195 623C201.212 629.212 209.837 633.013 219 634.401" stroke="#C18BF4" stroke-width="6" stroke-linecap="round"/>
<path d="M259 623C275 607 307 607 323 623C339 639 371 639 387 623" stroke="#C18BF4" stroke-width="6" stroke-linecap="round"/>
<path d="M387 623C403 607 435 607 451 623C467 639 499 639 515 623" stroke="#C18BF4" stroke-width="6" stroke-linecap="round"/>
<path d="M515 623C528.78 609.22 554.427 607.308 571.5 617.263M643 623C629.354 636.646 604.071 638.654 587 629.024" stroke="#C18BF4" stroke-width="6" stroke-linecap="round"/>
<path d="M643 623C659 607 691 607 707 623C723 639 755 639 771 623" stroke="#C18BF4" stroke-width="6" stroke-linecap="round"/>
<path d="M771 623C787 607 819 607 835 623C851 639 883 639 899 623" stroke="#C18BF4" stroke-width="6" stroke-linecap="round"/>
<path d="M899 623C915 607 947 607 963 623C979 639 1011 639 1027 623" stroke="#C18BF4" stroke-width="6" stroke-linecap="round"/>
<path d="M1027 623C1043 607 1075 607 1091 623C1107 639 1139 639 1155 623" stroke="#C18BF4" stroke-width="6" stroke-linecap="round"/>
<path d="M1155 623C1162 616.002 1172.06 612.064 1182.5 611.188M1283 623C1267 639 1235 639 1219 623C1212.45 616.45 1203.22 612.581 1193.5 611.394" stroke="#C18BF4" stroke-width="6" stroke-linecap="round"/>
<path d="M1283 623C1299 607 1331 607 1347 623C1353.66 629.663 1363.1 633.551 1373 634.665M1411 623C1404.34 629.663 1394.9 633.551 1385 634.665" stroke="#C18BF4" stroke-width="6" stroke-linecap="round"/>
</svg>
