<svg width="1540" height="636" viewBox="0 0 1540 636" preserveAspectRatio="none" fill="none" xmlns="http://www.w3.org/2000/svg">
<path d="M258 14C243.949 28.0514 217.557 29.7627 200.5 19.1339M161.5 2.00231C170.538 1.91862 179.608 4.10441 187 8.55968" stroke="#C18BF4" stroke-width="4" stroke-linecap="round"/>
<path d="M258 14C274 -2 306 -2 322 14C338 30 370 30 386 14" stroke="#C18BF4" stroke-width="4" stroke-linecap="round"/>
<path d="M386 14C402 -2 434 -2 450 14C466 30 498 30 514 14" stroke="#C18BF4" stroke-width="4" stroke-linecap="round"/>
<path d="M514 14C530 -2 562 -2 578 14C594 30 626 30 642 14" stroke="#C18BF4" stroke-width="4" stroke-linecap="round"/>
<path d="M642 14C658 -2 690 -2 706 14C722 30 754 30 770 14" stroke="#C18BF4" stroke-width="4" stroke-linecap="round"/>
<path d="M770 14C786 -2 818 -2 834 14C850 30 882 30 898 14" stroke="#C18BF4" stroke-width="4" stroke-linecap="round"/>
<path d="M898 14C914 -2 946 -2 962 14C978 30 1010 30 1026 14" stroke="#C18BF4" stroke-width="4" stroke-linecap="round"/>
<path d="M1026 14C1042 -2 1074 -2 1090 14C1106 30 1138 30 1154 14" stroke="#C18BF4" stroke-width="4" stroke-linecap="round"/>
<path d="M1154 14C1170 -2 1202 -2 1218 14C1234 30 1266 30 1282 14" stroke="#C18BF4" stroke-width="4" stroke-linecap="round"/>
<path d="M1282 14C1298 -2 1330 -2 1346 14C1362 30 1394 30 1410 14" stroke="#C18BF4" stroke-width="4" stroke-linecap="round"/>
<path d="M1410 14C1424.05 -0.051384 1450.44 -1.76268 1467.5 8.86611M1538 14C1523.67 28.329 1496.51 29.8255 1479.5 18.4894" stroke="#C18BF4" stroke-width="4" stroke-linecap="round"/>
<path d="M2 46C18 30 50 30 66 46C70.9508 50.9508 77.4334 54.3697 84.5 56.2567M130 46C123.788 52.2123 115.163 56.0126 106 57.4008" stroke="#C18BF4" stroke-width="4" stroke-linecap="round"/>
<path d="M130 46C146 30 178 30 194 46C210 62 242 62 258 46" stroke="#C18BF4" stroke-width="4" stroke-linecap="round"/>
<path d="M258 46C274 30 306 30 322 46C338 62 370 62 386 46" stroke="#C18BF4" stroke-width="4" stroke-linecap="round"/>
<path d="M386 46C402 30 434 30 450 46C466 62 498 62 514 46" stroke="#C18BF4" stroke-width="4" stroke-linecap="round"/>
<path d="M514 46C530 30 562 30 578 46C594 62 626 62 642 46" stroke="#C18BF4" stroke-width="4" stroke-linecap="round"/>
<path d="M642 46C658 30 690 30 706 46C722 62 754 62 770 46" stroke="#C18BF4" stroke-width="4" stroke-linecap="round"/>
<path d="M770 46C786 30 818 30 834 46C850 62 882 62 898 46" stroke="#C18BF4" stroke-width="4" stroke-linecap="round"/>
<path d="M898 46C914 30 946 30 962 46C978 62 1010 62 1026 46" stroke="#C18BF4" stroke-width="4" stroke-linecap="round"/>
<path d="M1026 46C1042 30 1074 30 1090 46C1106 62 1138 62 1154 46" stroke="#C18BF4" stroke-width="4" stroke-linecap="round"/>
<path d="M1154 46C1170 30 1202 30 1218 46C1234 62 1266 62 1282 46" stroke="#C18BF4" stroke-width="4" stroke-linecap="round"/>
<path d="M1282 46C1288.66 39.3375 1298.1 35.4493 1308 34.3354M1410 46C1394 62 1362 62 1346 46C1339.79 39.7877 1331.16 35.9875 1322 34.5993" stroke="#C18BF4" stroke-width="4" stroke-linecap="round"/>
<path d="M1410 46C1426 30 1458 30 1474 46C1476.75 48.7486 1479.97 51.025 1483.5 52.8292M1506.5 57.9977C1502.8 58.032 1499.09 57.6858 1495.5 56.9592" stroke="#C18BF4" stroke-width="4" stroke-linecap="round"/>
<path d="M130 78C121.778 86.2222 109.33 90.2192 97 89.9907" stroke="#C18BF4" stroke-width="4" stroke-linecap="round"/>
<path d="M130 78C146 62 178 62 194 78C210 94 242 94 258 78" stroke="#C18BF4" stroke-width="4" stroke-linecap="round"/>
<path d="M258 78C274 62 306 62 322 78C338 94 370 94 386 78" stroke="#C18BF4" stroke-width="4" stroke-linecap="round"/>
<path d="M386 78C402 62 434 62 450 78C466 94 498 94 514 78" stroke="#C18BF4" stroke-width="4" stroke-linecap="round"/>
<path d="M514 78C530 62 562 62 578 78C594 94 626 94 642 78" stroke="#C18BF4" stroke-width="4" stroke-linecap="round"/>
<path d="M642 78C658 62 690 62 706 78C722 94 754 94 770 78" stroke="#C18BF4" stroke-width="4" stroke-linecap="round"/>
<path d="M770 78C786 62 818 62 834 78C850 94 882 94 898 78" stroke="#C18BF4" stroke-width="4" stroke-linecap="round"/>
<path d="M898 78C914 62 946 62 962 78C978 94 1010 94 1026 78" stroke="#C18BF4" stroke-width="4" stroke-linecap="round"/>
<path d="M1026 78C1042 62 1074 62 1090 78C1106 94 1138 94 1154 78" stroke="#C18BF4" stroke-width="4" stroke-linecap="round"/>
<path d="M1154 78C1170 62 1202 62 1218 78C1234 94 1266 94 1282 78" stroke="#C18BF4" stroke-width="4" stroke-linecap="round"/>
<path d="M1282 78C1298 62 1330 62 1346 78C1352.33 84.3252 1361.15 88.1499 1370.5 89.4741M1410 78C1403.23 84.7746 1393.58 88.6807 1383.5 89.7184" stroke="#C18BF4" stroke-width="4" stroke-linecap="round"/>
<path d="M130 110C146 94 178 94 194 110C210 126 242 126 258 110" stroke="#C18BF4" stroke-width="4" stroke-linecap="round"/>
<path d="M258 110C274 94 306 94 322 110C338 126 370 126 386 110" stroke="#C18BF4" stroke-width="4" stroke-linecap="round"/>
<path d="M386 110C402 94 434 94 450 110C466 126 498 126 514 110" stroke="#C18BF4" stroke-width="4" stroke-linecap="round"/>
<path d="M514 110C530 94 562 94 578 110C594 126 626 126 642 110" stroke="#C18BF4" stroke-width="4" stroke-linecap="round"/>
<path d="M642 110C658 94 690 94 706 110C722 126 754 126 770 110" stroke="#C18BF4" stroke-width="4" stroke-linecap="round"/>
<path d="M770 110C786 94 818 94 834 110C850 126 882 126 898 110" stroke="#C18BF4" stroke-width="4" stroke-linecap="round"/>
<path d="M898 110C914 94 946 94 962 110C978 126 1010 126 1026 110" stroke="#C18BF4" stroke-width="4" stroke-linecap="round"/>
<path d="M1026 110C1042 94 1074 94 1090 110C1106 126 1138 126 1154 110" stroke="#C18BF4" stroke-width="4" stroke-linecap="round"/>
<path d="M1154 110C1168.11 95.8899 1194.66 94.2232 1211.71 105M1282 110C1267.81 124.189 1241.04 125.795 1224 114.817" stroke="#C18BF4" stroke-width="4" stroke-linecap="round"/>
<path d="M1282 110C1298 94 1330 94 1346 110" stroke="#C18BF4" stroke-width="4" stroke-linecap="round"/>
<path d="M258 142C244.22 155.78 218.573 157.692 201.5 147.737M161.5 130.002C169.739 129.926 178.004 131.735 185 135.431" stroke="#C18BF4" stroke-width="4" stroke-linecap="round"/>
<path d="M258 142C274 126 306 126 322 142C338 158 370 158 386 142" stroke="#C18BF4" stroke-width="4" stroke-linecap="round"/>
<path d="M386 142C402 126 434 126 450 142C466 158 498 158 514 142" stroke="#C18BF4" stroke-width="4" stroke-linecap="round"/>
<path d="M514 142C530 126 562 126 578 142C594 158 626 158 642 142" stroke="#C18BF4" stroke-width="4" stroke-linecap="round"/>
<path d="M642 142C658 126 690 126 706 142C722 158 754 158 770 142" stroke="#C18BF4" stroke-width="4" stroke-linecap="round"/>
<path d="M770 142C786 126 818 126 834 142C850 158 882 158 898 142" stroke="#C18BF4" stroke-width="4" stroke-linecap="round"/>
<path d="M898 142C914 126 946 126 962 142C978 158 1010 158 1026 142" stroke="#C18BF4" stroke-width="4" stroke-linecap="round"/>
<path d="M1026 142C1042 126 1074 126 1090 142C1106 158 1138 158 1154 142" stroke="#C18BF4" stroke-width="4" stroke-linecap="round"/>
<path d="M1154 142C1170 126 1202 126 1218 142C1232.53 156.532 1260.26 157.865 1277.22 146" stroke="#C18BF4" stroke-width="4" stroke-linecap="round"/>
<path d="M1410 142C1403 148.998 1392.94 152.936 1382.5 153.812M1286.5 138.2C1303.43 126.12 1331.39 127.387 1346 142C1352.55 148.55 1361.78 152.419 1371.5 153.606" stroke="#C18BF4" stroke-width="4" stroke-linecap="round"/>
<path d="M1410 142C1418.11 133.889 1430.33 129.89 1442.5 130.002" stroke="#C18BF4" stroke-width="4" stroke-linecap="round"/>
<path d="M130 174C114 190 82 190 66 174C57.8889 165.889 45.6659 161.89 33.5 162.002" stroke="#C18BF4" stroke-width="4" stroke-linecap="round"/>
<path d="M130 174C146 158 178 158 194 174C199.758 179.758 207.589 183.444 216 185.058M258 174C252.242 179.758 244.411 183.444 236 185.058" stroke="#C18BF4" stroke-width="4" stroke-linecap="round"/>
<path d="M258 174C274 158 306 158 322 174C338 190 370 190 386 174" stroke="#C18BF4" stroke-width="4" stroke-linecap="round"/>
<path d="M386 174C402 158 434 158 450 174C466 190 498 190 514 174" stroke="#C18BF4" stroke-width="4" stroke-linecap="round"/>
<path d="M514 174C530 158 562 158 578 174C594 190 626 190 642 174" stroke="#C18BF4" stroke-width="4" stroke-linecap="round"/>
<path d="M642 174C658 158 690 158 706 174C722 190 754 190 770 174" stroke="#C18BF4" stroke-width="4" stroke-linecap="round"/>
<path d="M770 174C786 158 818 158 834 174C850 190 882 190 898 174" stroke="#C18BF4" stroke-width="4" stroke-linecap="round"/>
<path d="M898 174C914 158 946 158 962 174C978 190 1010 190 1026 174" stroke="#C18BF4" stroke-width="4" stroke-linecap="round"/>
<path d="M1026 174C1042 158 1074 158 1090 174C1106 190 1138 190 1154 174" stroke="#C18BF4" stroke-width="4" stroke-linecap="round"/>
<path d="M1154 174C1170 158 1202 158 1218 174C1234 190 1266 190 1282 174" stroke="#C18BF4" stroke-width="4" stroke-linecap="round"/>
<path d="M1282 174C1298 158 1330 158 1346 174C1362 190 1394 190 1410 174" stroke="#C18BF4" stroke-width="4" stroke-linecap="round"/>
<path d="M1410 174C1416.55 167.45 1425.78 163.581 1435.5 162.394M1474 174C1467.45 167.45 1458.22 163.581 1448.5 162.394" stroke="#C18BF4" stroke-width="4" stroke-linecap="round"/>
<path d="M2 206C15.6458 192.354 40.9294 190.346 58 199.976M130 206C116.618 219.382 92.0447 221.572 75 212.569" stroke="#C18BF4" stroke-width="4" stroke-linecap="round"/>
<path d="M130 206C146 190 178 190 194 206C210 222 242 222 258 206" stroke="#C18BF4" stroke-width="4" stroke-linecap="round"/>
<path d="M258 206C274 190 306 190 322 206C338 222 370 222 386 206" stroke="#C18BF4" stroke-width="4" stroke-linecap="round"/>
<path d="M386 206C402 190 434 190 450 206C466 222 498 222 514 206" stroke="#C18BF4" stroke-width="4" stroke-linecap="round"/>
<path d="M514 206C530 190 562 190 578 206C594 222 626 222 642 206" stroke="#C18BF4" stroke-width="4" stroke-linecap="round"/>
<path d="M642 206C658 190 690 190 706 206C722 222 754 222 770 206" stroke="#C18BF4" stroke-width="4" stroke-linecap="round"/>
<path d="M770 206C786 190 818 190 834 206C850 222 882 222 898 206" stroke="#C18BF4" stroke-width="4" stroke-linecap="round"/>
<path d="M898 206C914 190 946 190 962 206C978 222 1010 222 1026 206" stroke="#C18BF4" stroke-width="4" stroke-linecap="round"/>
<path d="M1026 206C1042 190 1074 190 1090 206C1106 222 1138 222 1154 206" stroke="#C18BF4" stroke-width="4" stroke-linecap="round"/>
<path d="M1154 206C1170 190 1202 190 1218 206C1234 222 1266 222 1282 206" stroke="#C18BF4" stroke-width="4" stroke-linecap="round"/>
<path d="M1282 206C1288.55 199.45 1297.78 195.581 1307.5 194.394M1410 206C1394 222 1362 222 1346 206C1339.23 199.226 1329.58 195.319 1319.5 194.282" stroke="#C18BF4" stroke-width="4" stroke-linecap="round"/>
<path d="M130 238C114 254 82 254 66 238C64.329 236.329 62.4835 234.833 60.5 233.511M34 226C37.8783 226 41.7567 226.418 45.5 227.253" stroke="#C18BF4" stroke-width="4" stroke-linecap="round"/>
<path d="M130 238C135.644 232.356 143.279 228.703 151.5 227.041M258 238C242 254 210 254 194 238C188.356 232.356 180.721 228.703 172.5 227.041" stroke="#C18BF4" stroke-width="4" stroke-linecap="round"/>
<path d="M258 238C274 222 306 222 322 238C338 254 370 254 386 238" stroke="#C18BF4" stroke-width="4" stroke-linecap="round"/>
<path d="M386 238C402 222 434 222 450 238C466 254 498 254 514 238" stroke="#C18BF4" stroke-width="4" stroke-linecap="round"/>
<path d="M514 238C530 222 562 222 578 238C594 254 626 254 642 238" stroke="#C18BF4" stroke-width="4" stroke-linecap="round"/>
<path d="M642 238C658 222 690 222 706 238C722 254 754 254 770 238" stroke="#C18BF4" stroke-width="4" stroke-linecap="round"/>
<path d="M770 238C786 222 818 222 834 238C850 254 882 254 898 238" stroke="#C18BF4" stroke-width="4" stroke-linecap="round"/>
<path d="M898 238C914 222 946 222 962 238C978 254 1010 254 1026 238" stroke="#C18BF4" stroke-width="4" stroke-linecap="round"/>
<path d="M1026 238C1042 222 1074 222 1090 238C1106 254 1138 254 1154 238" stroke="#C18BF4" stroke-width="4" stroke-linecap="round"/>
<path d="M1154 238C1170 222 1202 222 1218 238C1234 254 1266 254 1282 238" stroke="#C18BF4" stroke-width="4" stroke-linecap="round"/>
<path d="M1282 238C1296.61 223.387 1324.57 222.12 1341.5 234.2M1410 238C1403.23 244.775 1393.58 248.681 1383.5 249.718M1351 242.15C1357.15 246.392 1364.69 248.915 1372.5 249.718" stroke="#C18BF4" stroke-width="4" stroke-linecap="round"/>
<path d="M1410 238C1426 222 1458 222 1474 238C1482 246 1494 250 1506 250" stroke="#C18BF4" stroke-width="4" stroke-linecap="round"/>
<path d="M130 270C146 254 178 254 194 270C210 286 242 286 258 270" stroke="#C18BF4" stroke-width="4" stroke-linecap="round"/>
<path d="M258 270C274 254 306 254 322 270C338 286 370 286 386 270" stroke="#C18BF4" stroke-width="4" stroke-linecap="round"/>
<path d="M386 270C402 254 434 254 450 270C466 286 498 286 514 270" stroke="#C18BF4" stroke-width="4" stroke-linecap="round"/>
<path d="M514 270C530 254 562 254 578 270C594 286 626 286 642 270" stroke="#C18BF4" stroke-width="4" stroke-linecap="round"/>
<path d="M642 270C658 254 690 254 706 270C722 286 754 286 770 270" stroke="#C18BF4" stroke-width="4" stroke-linecap="round"/>
<path d="M770 270C786 254 818 254 834 270C850 286 882 286 898 270" stroke="#C18BF4" stroke-width="4" stroke-linecap="round"/>
<path d="M898 270C914 254 946 254 962 270C978 286 1010 286 1026 270" stroke="#C18BF4" stroke-width="4" stroke-linecap="round"/>
<path d="M1026 270C1042 254 1074 254 1090 270C1095.87 275.872 1103.9 279.589 1112.5 281.151M1154 270C1147.23 276.775 1137.58 280.681 1127.5 281.718" stroke="#C18BF4" stroke-width="4" stroke-linecap="round"/>
<path d="M1154 270C1170 254 1202 254 1218 270C1234 286 1266 286 1282 270" stroke="#C18BF4" stroke-width="4" stroke-linecap="round"/>
<path d="M1282 270C1298 254 1330 254 1346 270C1362 286 1394 286 1410 270" stroke="#C18BF4" stroke-width="4" stroke-linecap="round"/>
<path d="M1410 270C1426 254 1458 254 1474 270C1480.55 276.55 1489.78 280.419 1499.5 281.606M1538 270C1531.11 276.886 1521.26 280.809 1511 281.768" stroke="#C18BF4" stroke-width="4" stroke-linecap="round"/>
<path d="M66 302C79.3817 315.382 103.955 317.572 121 308.569" stroke="#C18BF4" stroke-width="4" stroke-linecap="round"/>
<path d="M258 302C242 318 210 318 194 302C179.949 287.949 153.557 286.237 136.5 296.866" stroke="#C18BF4" stroke-width="4" stroke-linecap="round"/>
<path d="M258 302C274 286 306 286 322 302C338 318 370 318 386 302" stroke="#C18BF4" stroke-width="4" stroke-linecap="round"/>
<path d="M386 302C402 286 434 286 450 302C466 318 498 318 514 302" stroke="#C18BF4" stroke-width="4" stroke-linecap="round"/>
<path d="M514 302C530 286 562 286 578 302C594 318 626 318 642 302" stroke="#C18BF4" stroke-width="4" stroke-linecap="round"/>
<path d="M642 302C658 286 690 286 706 302C722 318 754 318 770 302" stroke="#C18BF4" stroke-width="4" stroke-linecap="round"/>
<path d="M770 302C786 286 818 286 834 302C850 318 882 318 898 302" stroke="#C18BF4" stroke-width="4" stroke-linecap="round"/>
<path d="M898 302C914 286 946 286 962 302C978 318 1010 318 1026 302" stroke="#C18BF4" stroke-width="4" stroke-linecap="round"/>
<path d="M1026 302C1042 286 1074 286 1090 302C1106 318 1138 318 1154 302" stroke="#C18BF4" stroke-width="4" stroke-linecap="round"/>
<path d="M1154 302C1170 286 1202 286 1218 302C1234 318 1266 318 1282 302" stroke="#C18BF4" stroke-width="4" stroke-linecap="round"/>
<path d="M1282 302C1296.76 287.242 1325.13 286.096 1342 298.563M1410 302C1395.1 316.905 1366.31 317.925 1349.5 305.061" stroke="#C18BF4" stroke-width="4" stroke-linecap="round"/>
<path d="M1410 302C1418.11 293.889 1430.33 289.89 1442.5 290.002" stroke="#C18BF4" stroke-width="4" stroke-linecap="round"/>
<path d="M194 334C210 350 242 350 258 334" stroke="#C18BF4" stroke-width="4" stroke-linecap="round"/>
<path d="M258 334C263.067 328.933 269.74 325.47 277 323.613M386 334C370 350 338 350 322 334C316.933 328.933 310.26 325.47 303 323.613" stroke="#C18BF4" stroke-width="4" stroke-linecap="round"/>
<path d="M386 334C402 318 434 318 450 334C466 350 498 350 514 334" stroke="#C18BF4" stroke-width="4" stroke-linecap="round"/>
<path d="M514 334C530 318 562 318 578 334C594 350 626 350 642 334" stroke="#C18BF4" stroke-width="4" stroke-linecap="round"/>
<path d="M642 334C658 318 690 318 706 334C722 350 754 350 770 334" stroke="#C18BF4" stroke-width="4" stroke-linecap="round"/>
<path d="M770 334C786 318 818 318 834 334C850 350 882 350 898 334" stroke="#C18BF4" stroke-width="4" stroke-linecap="round"/>
<path d="M898 334C914 318 946 318 962 334C978 350 1010 350 1026 334" stroke="#C18BF4" stroke-width="4" stroke-linecap="round"/>
<path d="M1026 334C1042 318 1074 318 1090 334C1106 350 1138 350 1154 334" stroke="#C18BF4" stroke-width="4" stroke-linecap="round"/>
<path d="M1154 334C1170 318 1202 318 1218 334C1234 350 1266 350 1282 334" stroke="#C18BF4" stroke-width="4" stroke-linecap="round"/>
<path d="M1282 334C1289.11 326.89 1299.38 322.94 1310 322.148M1410 334C1394 350 1362 350 1346 334C1339.56 327.562 1330.53 323.715 1321 322.457" stroke="#C18BF4" stroke-width="4" stroke-linecap="round"/>
<path d="M130 366C122 374 110 378 98 378" stroke="#C18BF4" stroke-width="4" stroke-linecap="round"/>
<path d="M130 366C146 350 178 350 194 366C210 382 242 382 258 366" stroke="#C18BF4" stroke-width="4" stroke-linecap="round"/>
<path d="M258 366C274 350 306 350 322 366C338 382 370 382 386 366" stroke="#C18BF4" stroke-width="4" stroke-linecap="round"/>
<path d="M386 366C402 350 434 350 450 366C466 382 498 382 514 366" stroke="#C18BF4" stroke-width="4" stroke-linecap="round"/>
<path d="M514 366C519.414 360.586 526.661 357.003 534.5 355.253M642 366C626 382 594 382 578 366C572.586 360.586 565.339 357.003 557.5 355.253" stroke="#C18BF4" stroke-width="4" stroke-linecap="round"/>
<path d="M642 366C658 350 690 350 706 366C722 382 754 382 770 366" stroke="#C18BF4" stroke-width="4" stroke-linecap="round"/>
<path d="M770 366C786 350 818 350 834 366C850 382 882 382 898 366" stroke="#C18BF4" stroke-width="4" stroke-linecap="round"/>
<path d="M898 366C914 350 946 350 962 366C978 382 1010 382 1026 366" stroke="#C18BF4" stroke-width="4" stroke-linecap="round"/>
<path d="M1026 366C1042 350 1074 350 1090 366C1106 382 1138 382 1154 366" stroke="#C18BF4" stroke-width="4" stroke-linecap="round"/>
<path d="M1154 366C1170 350 1202 350 1218 366C1234 382 1266 382 1282 366" stroke="#C18BF4" stroke-width="4" stroke-linecap="round"/>
<path d="M1282 366C1298 350 1330 350 1346 366C1360.9 380.905 1389.69 381.925 1406.5 369.061" stroke="#C18BF4" stroke-width="4" stroke-linecap="round"/>
<path d="M1505.5 377.998C1493.67 377.888 1481.89 373.889 1474 366C1466.89 358.89 1456.62 354.94 1446 354.148M1413.5 362.939C1420.28 357.748 1429.02 354.818 1438 354.148" stroke="#C18BF4" stroke-width="4" stroke-linecap="round"/>
<path d="M66 398C82 414 114 414 130 398" stroke="#C18BF4" stroke-width="4" stroke-linecap="round"/>
<path d="M130 398C142.867 385.133 166.081 382.614 183 390.441M258 398C245.633 410.367 223.708 413.175 207 406.425" stroke="#C18BF4" stroke-width="4" stroke-linecap="round"/>
<path d="M258 398C274 382 306 382 322 398C338 414 370 414 386 398" stroke="#C18BF4" stroke-width="4" stroke-linecap="round"/>
<path d="M386 398C402 382 434 382 450 398C466 414 498 414 514 398" stroke="#C18BF4" stroke-width="4" stroke-linecap="round"/>
<path d="M514 398C530 382 562 382 578 398C594 414 626 414 642 398" stroke="#C18BF4" stroke-width="4" stroke-linecap="round"/>
<path d="M642 398C658 382 690 382 706 398C722 414 754 414 770 398" stroke="#C18BF4" stroke-width="4" stroke-linecap="round"/>
<path d="M770 398C786 382 818 382 834 398C850 414 882 414 898 398" stroke="#C18BF4" stroke-width="4" stroke-linecap="round"/>
<path d="M898 398C914 382 946 382 962 398C978 414 1010 414 1026 398" stroke="#C18BF4" stroke-width="4" stroke-linecap="round"/>
<path d="M1026 398C1040.05 383.949 1066.44 382.237 1083.5 392.866M1154 398C1139.81 412.189 1113.04 413.795 1096 402.817" stroke="#C18BF4" stroke-width="4" stroke-linecap="round"/>
<path d="M1154 398C1170 382 1202 382 1218 398C1234 414 1266 414 1282 398" stroke="#C18BF4" stroke-width="4" stroke-linecap="round"/>
<path d="M1282 398C1290.22 389.778 1302.67 385.781 1315 386.009" stroke="#C18BF4" stroke-width="4" stroke-linecap="round"/>
<path d="M130 430C114 446 82 446 66 430C57.7778 421.778 45.3302 417.781 33 418.009" stroke="#C18BF4" stroke-width="4" stroke-linecap="round"/>
<path d="M130 430C146 414 178 414 194 430C210 446 242 446 258 430" stroke="#C18BF4" stroke-width="4" stroke-linecap="round"/>
<path d="M258 430C274 414 306 414 322 430C338 446 370 446 386 430" stroke="#C18BF4" stroke-width="4" stroke-linecap="round"/>
<path d="M386 430C399.513 416.487 424.439 414.387 441.5 423.699M514 430C500.618 443.382 476.045 445.572 459 436.569" stroke="#C18BF4" stroke-width="4" stroke-linecap="round"/>
<path d="M514 430C530 414 562 414 578 430C594 446 626 446 642 430" stroke="#C18BF4" stroke-width="4" stroke-linecap="round"/>
<path d="M642 430C658 414 690 414 706 430C722 446 754 446 770 430" stroke="#C18BF4" stroke-width="4" stroke-linecap="round"/>
<path d="M770 430C786 414 818 414 834 430C850 446 882 446 898 430" stroke="#C18BF4" stroke-width="4" stroke-linecap="round"/>
<path d="M898 430C914 414 946 414 962 430C978 446 1010 446 1026 430" stroke="#C18BF4" stroke-width="4" stroke-linecap="round"/>
<path d="M1026 430C1042 414 1074 414 1090 430C1106 446 1138 446 1154 430" stroke="#C18BF4" stroke-width="4" stroke-linecap="round"/>
<path d="M1154 430C1170 414 1202 414 1218 430C1232.76 444.758 1261.13 445.904 1278 433.437" stroke="#C18BF4" stroke-width="4" stroke-linecap="round"/>
<path d="M1378 442C1366 442 1354 438 1346 430C1331.53 415.53 1303.97 414.146 1287 425.85" stroke="#C18BF4" stroke-width="4" stroke-linecap="round"/>
<path d="M2 462C5.13321 458.867 8.87997 456.347 13 454.441M130 462C114 478 82 478 66 462C56.6625 452.663 41.8757 448.774 28 450.335" stroke="#C18BF4" stroke-width="4" stroke-linecap="round"/>
<path d="M130 462C135.986 456.014 144.211 452.268 153 450.761M258 462C242 478 210 478 194 462C188.701 456.701 181.647 453.157 174 451.368" stroke="#C18BF4" stroke-width="4" stroke-linecap="round"/>
<path d="M258 462C274 446 306 446 322 462C338 478 370 478 386 462" stroke="#C18BF4" stroke-width="4" stroke-linecap="round"/>
<path d="M386 462C402 446 434 446 450 462C466 478 498 478 514 462" stroke="#C18BF4" stroke-width="4" stroke-linecap="round"/>
<path d="M514 462C530 446 562 446 578 462C594 478 626 478 642 462" stroke="#C18BF4" stroke-width="4" stroke-linecap="round"/>
<path d="M642 462C658 446 690 446 706 462C722 478 754 478 770 462" stroke="#C18BF4" stroke-width="4" stroke-linecap="round"/>
<path d="M770 462C786 446 818 446 834 462C850 478 882 478 898 462" stroke="#C18BF4" stroke-width="4" stroke-linecap="round"/>
<path d="M898 462C914 446 946 446 962 462C978 478 1010 478 1026 462" stroke="#C18BF4" stroke-width="4" stroke-linecap="round"/>
<path d="M1026 462C1042 446 1074 446 1090 462C1106 478 1138 478 1154 462" stroke="#C18BF4" stroke-width="4" stroke-linecap="round"/>
<path d="M1154 462C1170 446 1202 446 1218 462C1234 478 1266 478 1282 462" stroke="#C18BF4" stroke-width="4" stroke-linecap="round"/>
<path d="M1282 462C1298 446 1330 446 1346 462C1362 478 1394 478 1410 462" stroke="#C18BF4" stroke-width="4" stroke-linecap="round"/>
<path d="M1410 462C1416.77 455.225 1426.42 451.319 1436.5 450.281M1538 462C1535.51 464.487 1532.64 466.587 1529.5 468.301M1446 450.148C1456.62 450.94 1466.89 454.89 1474 462C1485.4 473.402 1504.93 476.678 1521 471.83" stroke="#C18BF4" stroke-width="4" stroke-linecap="round"/>
<path d="M130 494C146 478 178 478 194 494C210 510 242 510 258 494" stroke="#C18BF4" stroke-width="4" stroke-linecap="round"/>
<path d="M258 494C274 478 306 478 322 494C338 510 370 510 386 494" stroke="#C18BF4" stroke-width="4" stroke-linecap="round"/>
<path d="M386 494C402 478 434 478 450 494C466 510 498 510 514 494" stroke="#C18BF4" stroke-width="4" stroke-linecap="round"/>
<path d="M514 494C530 478 562 478 578 494C591.646 507.646 616.929 509.654 634 500.024" stroke="#C18BF4" stroke-width="4" stroke-linecap="round"/>
<path d="M770 494C754 510 722 510 706 494C692.085 480.085 666.069 478.272 649 488.56" stroke="#C18BF4" stroke-width="4" stroke-linecap="round"/>
<path d="M770 494C786 478 818 478 834 494C850 510 882 510 898 494" stroke="#C18BF4" stroke-width="4" stroke-linecap="round"/>
<path d="M898 494C914 478 946 478 962 494C978 510 1010 510 1026 494" stroke="#C18BF4" stroke-width="4" stroke-linecap="round"/>
<path d="M1026 494C1042 478 1074 478 1090 494C1106 510 1138 510 1154 494" stroke="#C18BF4" stroke-width="4" stroke-linecap="round"/>
<path d="M1154 494C1170 478 1202 478 1218 494C1234 510 1266 510 1282 494" stroke="#C18BF4" stroke-width="4" stroke-linecap="round"/>
<path d="M1282 494C1289.22 486.779 1299.7 482.817 1310.5 482.114M1410 494C1394 510 1362 510 1346 494C1339.45 487.45 1330.22 483.581 1320.5 482.394" stroke="#C18BF4" stroke-width="4" stroke-linecap="round"/>
<path d="M1410 494C1424.76 479.242 1453.13 478.096 1470 490.563M1506 506C1495.86 506 1485.73 503.146 1478 497.437" stroke="#C18BF4" stroke-width="4" stroke-linecap="round"/>
<path d="M2 526C15.6458 512.354 40.9294 510.346 58 519.976M130 526C116.487 539.513 91.5609 541.613 74.5 532.301" stroke="#C18BF4" stroke-width="4" stroke-linecap="round"/>
<path d="M130 526C146 510 178 510 194 526C210 542 242 542 258 526" stroke="#C18BF4" stroke-width="4" stroke-linecap="round"/>
<path d="M258 526C274 510 306 510 322 526C338 542 370 542 386 526" stroke="#C18BF4" stroke-width="4" stroke-linecap="round"/>
<path d="M386 526C402 510 434 510 450 526C456.099 532.099 464.523 535.873 473.5 537.323M514 526C507.901 532.099 499.477 535.873 490.5 537.323" stroke="#C18BF4" stroke-width="4" stroke-linecap="round"/>
<path d="M514 526C530 510 562 510 578 526C594 542 626 542 642 526" stroke="#C18BF4" stroke-width="4" stroke-linecap="round"/>
<path d="M642 526C658 510 690 510 706 526C722 542 754 542 770 526" stroke="#C18BF4" stroke-width="4" stroke-linecap="round"/>
<path d="M770 526C775.986 520.014 784.211 516.268 793 514.761M898 526C882 542 850 542 834 526C828.014 520.014 819.789 516.268 811 514.761" stroke="#C18BF4" stroke-width="4" stroke-linecap="round"/>
<path d="M898 526C914 510 946 510 962 526C978 542 1010 542 1026 526" stroke="#C18BF4" stroke-width="4" stroke-linecap="round"/>
<path d="M1026 526C1042 510 1074 510 1090 526C1106 542 1138 542 1154 526" stroke="#C18BF4" stroke-width="4" stroke-linecap="round"/>
<path d="M1154 526C1170 510 1202 510 1218 526C1234 542 1266 542 1282 526" stroke="#C18BF4" stroke-width="4" stroke-linecap="round"/>
<path d="M1282 526C1298 510 1330 510 1346 526C1352.77 532.775 1362.42 536.681 1372.5 537.718M1410 526C1403.23 532.775 1393.58 536.681 1383.5 537.718" stroke="#C18BF4" stroke-width="4" stroke-linecap="round"/>
<path d="M1410 526C1426 510 1458 510 1474 526" stroke="#C18BF4" stroke-width="4" stroke-linecap="round"/>
<path d="M258 558C263.067 552.933 269.74 549.47 277 547.612M386 558C370 574 338 574 322 558C315.002 551.002 304.943 547.064 294.5 546.188" stroke="#C18BF4" stroke-width="4" stroke-linecap="round"/>
<path d="M386 558C402 542 434 542 450 558C466 574 498 574 514 558" stroke="#C18BF4" stroke-width="4" stroke-linecap="round"/>
<path d="M514 558C530 542 562 542 578 558C594 574 626 574 642 558" stroke="#C18BF4" stroke-width="4" stroke-linecap="round"/>
<path d="M642 558C658 542 690 542 706 558C722 574 754 574 770 558" stroke="#C18BF4" stroke-width="4" stroke-linecap="round"/>
<path d="M770 558C786 542 818 542 834 558C850 574 882 574 898 558" stroke="#C18BF4" stroke-width="4" stroke-linecap="round"/>
<path d="M898 558C914 542 946 542 962 558C978 574 1010 574 1026 558" stroke="#C18BF4" stroke-width="4" stroke-linecap="round"/>
<path d="M1026 558C1042 542 1074 542 1090 558C1106 574 1138 574 1154 558" stroke="#C18BF4" stroke-width="4" stroke-linecap="round"/>
<path d="M1154 558C1170 542 1202 542 1218 558C1234 574 1266 574 1282 558" stroke="#C18BF4" stroke-width="4" stroke-linecap="round"/>
<path d="M1282 558C1298 542 1330 542 1346 558C1360.76 572.758 1389.13 573.904 1406 561.437" stroke="#C18BF4" stroke-width="4" stroke-linecap="round"/>
<path d="M1442.5 546.002C1431.94 545.905 1421.34 548.904 1413.42 555" stroke="#C18BF4" stroke-width="4" stroke-linecap="round"/>
<path d="M194 590C210 606 242 606 258 590" stroke="#C18BF4" stroke-width="4" stroke-linecap="round"/>
<path d="M258 590C274 574 306 574 322 590C338 606 370 606 386 590" stroke="#C18BF4" stroke-width="4" stroke-linecap="round"/>
<path d="M386 590C402 574 434 574 450 590C466 606 498 606 514 590" stroke="#C18BF4" stroke-width="4" stroke-linecap="round"/>
<path d="M514 590C530 574 562 574 578 590C594 606 626 606 642 590" stroke="#C18BF4" stroke-width="4" stroke-linecap="round"/>
<path d="M642 590C658 574 690 574 706 590C722 606 754 606 770 590" stroke="#C18BF4" stroke-width="4" stroke-linecap="round"/>
<path d="M770 590C786 574 818 574 834 590C850 606 882 606 898 590" stroke="#C18BF4" stroke-width="4" stroke-linecap="round"/>
<path d="M898 590C914 574 946 574 962 590C978 606 1010 606 1026 590" stroke="#C18BF4" stroke-width="4" stroke-linecap="round"/>
<path d="M1026 590C1042 574 1074 574 1090 590C1106 606 1138 606 1154 590" stroke="#C18BF4" stroke-width="4" stroke-linecap="round"/>
<path d="M1154 590C1170 574 1202 574 1218 590C1234 606 1266 606 1282 590" stroke="#C18BF4" stroke-width="4" stroke-linecap="round"/>
<path d="M1282 590C1298 574 1330 574 1346 590C1362 606 1394 606 1410 590" stroke="#C18BF4" stroke-width="4" stroke-linecap="round"/>
<path d="M1410 590C1426 574 1458 574 1474 590C1482 598 1494 602 1506 602" stroke="#C18BF4" stroke-width="4" stroke-linecap="round"/>
<path d="M258 622C251.788 628.212 243.163 632.013 234 633.401M162 610C174 610 186 614 194 622C200.212 628.212 208.837 632.013 218 633.401" stroke="#C18BF4" stroke-width="4" stroke-linecap="round"/>
<path d="M258 622C274 606 306 606 322 622C338 638 370 638 386 622" stroke="#C18BF4" stroke-width="4" stroke-linecap="round"/>
<path d="M386 622C402 606 434 606 450 622C466 638 498 638 514 622" stroke="#C18BF4" stroke-width="4" stroke-linecap="round"/>
<path d="M514 622C527.78 608.22 553.427 606.308 570.5 616.263M642 622C628.354 635.646 603.071 637.654 586 628.024" stroke="#C18BF4" stroke-width="4" stroke-linecap="round"/>
<path d="M642 622C658 606 690 606 706 622C722 638 754 638 770 622" stroke="#C18BF4" stroke-width="4" stroke-linecap="round"/>
<path d="M770 622C786 606 818 606 834 622C850 638 882 638 898 622" stroke="#C18BF4" stroke-width="4" stroke-linecap="round"/>
<path d="M898 622C914 606 946 606 962 622C978 638 1010 638 1026 622" stroke="#C18BF4" stroke-width="4" stroke-linecap="round"/>
<path d="M1026 622C1042 606 1074 606 1090 622C1106 638 1138 638 1154 622" stroke="#C18BF4" stroke-width="4" stroke-linecap="round"/>
<path d="M1154 622C1161 615.002 1171.06 611.064 1181.5 610.188M1282 622C1266 638 1234 638 1218 622C1211.45 615.45 1202.22 611.581 1192.5 610.394" stroke="#C18BF4" stroke-width="4" stroke-linecap="round"/>
<path d="M1282 622C1298 606 1330 606 1346 622C1352.66 628.663 1362.1 632.551 1372 633.665M1410 622C1403.34 628.663 1393.9 632.551 1384 633.665" stroke="#C18BF4" stroke-width="4" stroke-linecap="round"/>
</svg>
